<svg width="14" height="22" viewBox="0 0 14 22" fill="none" xmlns="http://www.w3.org/2000/svg">
<path fill-rule="evenodd" clip-rule="evenodd" d="M5.38461 2.0625C3.57057 2.0625 2.1 3.50681 2.1 5.28846V15.125C2.1 17.7829 4.2938 19.9375 7 19.9375C9.70619 19.9375 11.9 17.7829 11.9 15.125V7.90625C11.9 7.33671 12.3701 6.875 12.95 6.875C13.5299 6.875 14 7.33671 14 7.90625V15.125C14 18.922 10.866 22 7 22C3.13401 22 0 18.922 0 15.125V5.28846C0 2.36772 2.41077 0 5.38461 0C8.35846 0 10.7692 2.36772 10.7692 5.28846V15.0589C10.7692 16.9939 9.17209 18.5625 7.20192 18.5625C5.23175 18.5625 3.63462 16.9939 3.63462 15.0589V5.15625C3.63462 4.58671 4.10472 4.125 4.68462 4.125C5.26451 4.125 5.73462 4.58671 5.73462 5.15625V15.0589C5.73462 15.8548 6.39155 16.5 7.20192 16.5C8.01229 16.5 8.66923 15.8548 8.66923 15.0589V5.28846C8.66923 3.50681 7.19866 2.0625 5.38461 2.0625Z" fill="white"/>
</svg>
