<svg width="16" height="16" viewBox="0 0 16 16" fill="none" xmlns="http://www.w3.org/2000/svg">
<circle cx="7.73715" cy="8.10531" r="7.57895" fill="white"/>
<path d="M6.02639 3.89478C6.24439 3.89478 6.42112 4.07149 6.42112 4.28948L6.4211 5.07886C6.4211 5.29685 6.24437 5.47356 6.02636 5.47355C5.80835 5.47355 5.63163 5.29683 5.63163 5.07885L5.63164 4.28946C5.63165 4.07148 5.80838 3.89477 6.02639 3.89478Z" fill="#6FE1B8"/>
<path d="M9.44744 3.89478C9.66545 3.89478 9.84217 4.07149 9.84217 4.28948L9.84216 5.07886C9.84215 5.29685 9.66542 5.47356 9.44741 5.47355C9.22941 5.47355 9.05268 5.29683 9.05268 5.07885L9.0527 4.28946C9.0527 4.07148 9.22943 3.89477 9.44744 3.89478Z" fill="#6FE1B8"/>
<path d="M3.52637 5.86916C3.52637 5.06988 4.17438 4.42194 4.97374 4.42194C5.19174 4.42194 5.36847 4.59865 5.36847 4.81664C5.36847 5.03462 5.19174 5.21133 4.97374 5.21133C4.61039 5.21133 4.31584 5.50585 4.31584 5.86916V10.8686C4.31584 11.2319 4.61039 11.5264 4.97374 11.5264H10.5001C10.8634 11.5264 11.1579 11.2319 11.1579 10.8686V5.86916C11.1579 5.50585 10.8634 5.21133 10.5001 5.21133C10.282 5.21133 10.1053 5.03462 10.1053 4.81664C10.1053 4.59865 10.282 4.42194 10.5001 4.42194C11.2994 4.42194 11.9474 5.06988 11.9474 5.86916V10.8686C11.9474 11.6679 11.2994 12.3158 10.5001 12.3158H4.97374C4.17438 12.3158 3.52637 11.6679 3.52637 10.8686V5.86916Z" fill="#6FE1B8"/>
<path d="M6.68426 4.81664C6.68426 4.59865 6.86099 4.42194 7.079 4.42194H8.39479C8.6128 4.42194 8.78953 4.59865 8.78953 4.81664C8.78953 5.03462 8.6128 5.21133 8.39479 5.21133H7.079C6.86099 5.21133 6.68426 5.03462 6.68426 4.81664Z" fill="#6FE1B8"/>
<path d="M6.15795 8.63151C6.15795 8.92237 5.92231 9.15817 5.63163 9.15817C5.34095 9.15817 5.10531 8.92237 5.10531 8.63151C5.10531 8.34064 5.34095 8.10485 5.63163 8.10485C5.92231 8.10485 6.15795 8.34064 6.15795 8.63151Z" fill="#6FE1B8"/>
<path d="M5.63163 10.7365C5.92231 10.7365 6.15795 10.5007 6.15795 10.2099C6.15795 9.919 5.92231 9.68321 5.63163 9.68321C5.34095 9.68321 5.10531 9.919 5.10531 10.2099C5.10531 10.5007 5.34095 10.7365 5.63163 10.7365Z" fill="#6FE1B8"/>
<path d="M8.26321 7.05273C8.26321 7.3436 8.02757 7.57939 7.73689 7.57939C7.44622 7.57939 7.21058 7.3436 7.21058 7.05273C7.21058 6.76186 7.44622 6.52607 7.73689 6.52607C8.02757 6.52607 8.26321 6.76186 8.26321 7.05273Z" fill="#6FE1B8"/>
<path d="M7.73689 9.15817C8.02757 9.15817 8.26321 8.92237 8.26321 8.63151C8.26321 8.34064 8.02757 8.10485 7.73689 8.10485C7.44622 8.10485 7.21058 8.34064 7.21058 8.63151C7.21058 8.92237 7.44622 9.15817 7.73689 9.15817Z" fill="#6FE1B8"/>
<path d="M8.26321 10.2099C8.26321 10.5007 8.02757 10.7365 7.73689 10.7365C7.44622 10.7365 7.21058 10.5007 7.21058 10.2099C7.21058 9.919 7.44622 9.68321 7.73689 9.68321C8.02757 9.68321 8.26321 9.919 8.26321 10.2099Z" fill="#6FE1B8"/>
<path d="M9.84216 7.57939C10.1328 7.57939 10.3685 7.3436 10.3685 7.05273C10.3685 6.76186 10.1328 6.52607 9.84216 6.52607C9.55148 6.52607 9.31584 6.76186 9.31584 7.05273C9.31584 7.3436 9.55148 7.57939 9.84216 7.57939Z" fill="#6FE1B8"/>
<path d="M10.3685 8.63151C10.3685 8.92237 10.1328 9.15817 9.84216 9.15817C9.55148 9.15817 9.31584 8.92237 9.31584 8.63151C9.31584 8.34064 9.55148 8.10485 9.84216 8.10485C10.1328 8.10485 10.3685 8.34064 10.3685 8.63151Z" fill="#6FE1B8"/>
<path d="M9.84216 10.7365C10.1328 10.7365 10.3685 10.5007 10.3685 10.2099C10.3685 9.919 10.1328 9.68321 9.84216 9.68321C9.55148 9.68321 9.31584 9.919 9.31584 10.2099C9.31584 10.5007 9.55148 10.7365 9.84216 10.7365Z" fill="#6FE1B8"/>
</svg>
