<svg width="14" height="14" viewBox="0 0 14 14" fill="none" xmlns="http://www.w3.org/2000/svg">
<path d="M14 10.755V12.5C14 12.8978 13.842 13.2793 13.5607 13.5606C13.2794 13.8419 12.8978 14 12.5 14H11.5C9.98925 14.0044 8.49265 13.7088 7.09703 13.1303C5.70142 12.5518 4.43458 11.7019 3.37004 10.63C2.29805 9.56542 1.44815 8.29858 0.869652 6.90297C0.29115 5.50735 -0.00443445 4.01075 5.02775e-05 2.49999V1.5C5.02775e-05 1.10217 0.158085 0.720643 0.439389 0.43934C0.720692 0.158036 1.10222 1.49985e-06 1.50004 1.49985e-06H3.24504C3.57174 -0.000460343 3.88965 0.10575 4.15047 0.30249C4.41128 0.499229 4.60074 0.775741 4.69003 1.09L5.32003 3.29499C5.39415 3.55238 5.398 3.82493 5.33118 4.08431C5.26436 4.34369 5.1293 4.58045 4.94003 4.76998L3.74504 5.96498C4.6037 7.8705 6.1295 9.3963 8.03502 10.255L9.23002 9.05997C9.41955 8.8707 9.65631 8.73564 9.91569 8.66882C10.1751 8.602 10.4476 8.60585 10.705 8.67997L12.91 9.30997C13.2243 9.39927 13.5008 9.58872 13.6975 9.84953C13.8942 10.1103 14.0005 10.4283 14 10.755ZM8.00002 0.999998C8.65663 0.999998 9.3068 1.12933 9.91343 1.3806C10.5201 1.63187 11.0713 2.00017 11.5355 2.46446C11.9998 2.92875 12.3681 3.47994 12.6194 4.08657C12.8707 4.69319 13 5.34337 13 5.99998C13 6.13259 13.0527 6.25976 13.1464 6.35353C13.2402 6.4473 13.3674 6.49998 13.5 6.49998C13.6326 6.49998 13.7598 6.4473 13.8536 6.35353C13.9473 6.25976 14 6.13259 14 5.99998C14 4.40869 13.3679 2.88257 12.2426 1.75735C11.1174 0.63214 9.59131 1.49985e-06 8.00002 1.49985e-06C7.86741 1.49985e-06 7.74024 0.0526797 7.64647 0.146448C7.5527 0.240215 7.50002 0.367392 7.50002 0.5C7.50002 0.632607 7.5527 0.759784 7.64647 0.853552C7.74024 0.94732 7.86741 0.999998 8.00002 0.999998ZM8.00002 3.49999C8.32832 3.49999 8.65341 3.56465 8.95673 3.69029C9.26004 3.81593 9.53564 4.00007 9.76778 4.23222C9.99993 4.46436 10.1841 4.73996 10.3097 5.04327C10.4353 5.34659 10.5 5.67168 10.5 5.99998C10.5 6.13259 10.5527 6.25976 10.6465 6.35353C10.7402 6.4473 10.8674 6.49998 11 6.49998C11.1326 6.49998 11.2598 6.4473 11.3536 6.35353C11.4473 6.25976 11.5 6.13259 11.5 5.99998C11.5 5.07172 11.1313 4.18149 10.4749 3.52511C9.81851 2.86874 8.92828 2.49999 8.00002 2.49999C7.86741 2.49999 7.74024 2.55267 7.64647 2.64644C7.5527 2.74021 7.50002 2.86738 7.50002 2.99999C7.50002 3.1326 7.5527 3.25977 7.64647 3.35354C7.74024 3.44731 7.86741 3.49999 8.00002 3.49999Z" fill="#414253"/>
</svg>
