<svg width="14" height="14" viewBox="0 0 14 14" fill="none" xmlns="http://www.w3.org/2000/svg">
<g clip-path="url(#clip0_18_26)">
<path d="M11.9498 2.05026C10.6276 0.728137 8.86977 0 7 0C5.13023 0 3.37239 0.728137 2.05023 2.05026C0.728137 3.37239 0 5.13023 0 7C0 8.86977 0.728137 10.6276 2.05023 11.9497C3.37239 13.2719 5.13023 14 7 14C8.86977 14 10.6276 13.2719 11.9498 11.9497C13.2719 10.6276 14 8.86977 14 7C14 5.13023 13.2719 3.37239 11.9498 2.05026ZM7 13.1797C5.17155 13.1797 3.52633 12.3812 2.39389 11.1149C3.09594 9.25373 4.89311 7.92969 7 7.92969C5.64085 7.92969 4.53906 6.8279 4.53906 5.46875C4.53906 4.1096 5.64085 3.00781 7 3.00781C8.35915 3.00781 9.46094 4.1096 9.46094 5.46875C9.46094 6.8279 8.35915 7.92969 7 7.92969C9.10689 7.92969 10.9041 9.25373 11.6061 11.1149C10.4737 12.3812 8.82845 13.1797 7 13.1797Z" fill="#546EDB"/>
</g>
<defs>
<clipPath id="clip0_18_26">
<rect width="14" height="14" fill="white"/>
</clipPath>
</defs>
</svg>
