<svg width="100" height="100" viewBox="0 0 100 100" fill="none" xmlns="http://www.w3.org/2000/svg">
<path d="M19.7182 86.3179C25.6077 86.3179 30.3822 81.5435 30.3822 75.6539C30.3822 69.7644 25.6077 64.9899 19.7182 64.9899C13.8286 64.9899 9.0542 69.7644 9.0542 75.6539C9.0542 81.5435 13.8286 86.3179 19.7182 86.3179Z" fill="#9AAEFF"/>
<path d="M88.33 76.8612C93.4417 76.8612 97.5855 72.7173 97.5855 67.6056C97.5855 62.4939 93.4417 58.3501 88.33 58.3501C83.2183 58.3501 79.0745 62.4939 79.0745 67.6056C79.0745 72.7173 83.2183 76.8612 88.33 76.8612Z" fill="#DCE3FF"/>
<path d="M79.8793 30.1811C84.102 30.1811 87.5251 26.7579 87.5251 22.5352C87.5251 18.3125 84.102 14.8893 79.8793 14.8893C75.6566 14.8893 72.2334 18.3125 72.2334 22.5352C72.2334 26.7579 75.6566 30.1811 79.8793 30.1811Z" fill="#F3F5FF"/>
<path d="M11.3169 60.2873C17.5671 60.2873 22.6338 55.3441 22.6338 49.2463C22.6338 43.1485 17.5671 38.2052 11.3169 38.2052C5.06675 38.2052 0 43.1485 0 49.2463C0 55.3441 5.06675 60.2873 11.3169 60.2873Z" fill="#8AA0FB"/>
<path d="M43.8272 100C49.5092 100 54.1153 95.5116 54.1153 89.9749C54.1153 84.4381 49.5092 79.9497 43.8272 79.9497C38.1452 79.9497 33.5391 84.4381 33.5391 89.9749C33.5391 95.5116 38.1452 100 43.8272 100Z" fill="#ACBCFF"/>
<path d="M70.2675 95.6076C75.6654 95.6076 80.0412 91.347 80.0412 86.0911C80.0412 80.8353 75.6654 76.5746 70.2675 76.5746C64.8697 76.5746 60.4939 80.8353 60.4939 86.0911C60.4939 91.347 64.8697 95.6076 70.2675 95.6076Z" fill="#C8D2FF"/>
<path d="M23.5597 34.6461C30.0939 34.6461 35.3909 29.4755 35.3909 23.0974C35.3909 16.7192 30.0939 11.5487 23.5597 11.5487C17.0255 11.5487 11.7285 16.7192 11.7285 23.0974C11.7285 29.4755 17.0255 34.6461 23.5597 34.6461Z" fill="#6B84EC"/>
<path d="M91.2551 52.1395C96.0848 52.1395 100 48.2969 100 43.5568C100 38.8167 96.0848 34.9741 91.2551 34.9741C86.4255 34.9741 82.5103 38.8167 82.5103 43.5568C82.5103 48.2969 86.4255 52.1395 91.2551 52.1395Z" fill="#EAEDFF"/>
<path d="M52.9175 24.9497C59.8071 24.9497 65.3923 19.3645 65.3923 12.4748C65.3923 5.58518 59.8071 0 52.9175 0C46.0278 0 40.4426 5.58518 40.4426 12.4748C40.4426 19.3645 46.0278 24.9497 52.9175 24.9497Z" fill="#546EDB"/>
</svg>
