<svg width="29" height="36" viewBox="0 0 29 36" fill="none" xmlns="http://www.w3.org/2000/svg">
<path fill-rule="evenodd" clip-rule="evenodd" d="M26.423 15.0113C24.0203 10.6309 19.3467 7.60907 14.0677 7.60907C8.90276 7.60907 4.3172 10.5019 1.87118 14.7297C2.32273 15.6214 3.1382 16.2284 4.15628 16.2284H4.26486C6.13479 12.8282 9.73415 10.4822 14.0677 10.4822C18.4013 10.4822 22.0007 12.8282 23.8706 16.2284H24.2987C25.2056 16.2284 25.9517 15.7468 26.423 15.0113ZM24.958 19.0589C25.9364 18.9319 26.8485 18.5268 27.6168 17.9209C27.9545 19.1134 28.1355 20.3664 28.1355 21.6555C28.1355 29.3171 21.7411 35.7019 14.0677 35.7019C6.39443 35.7019 0 29.3171 0 21.6555C0 20.3664 0.181011 19.1135 0.518671 17.921C1.28697 18.5269 2.19904 18.9319 3.17753 19.0589C2.98088 19.895 2.8775 20.7649 2.8775 21.6555C2.8775 27.721 7.99304 32.8287 14.0677 32.8287C20.4622 32.8287 25.258 27.721 25.258 21.6555C25.258 20.7649 25.1546 19.895 24.958 19.0589Z" fill="#4088DD"/>
<path fill-rule="evenodd" clip-rule="evenodd" d="M14.8129 0H14.1735H12.8946C11.6157 0.319236 10.6566 1.27695 10.6566 2.55389V5.42702H9.37767V4.15007C9.37767 3.5116 8.73822 2.87313 8.09878 2.87313C7.77906 2.87313 7.45934 2.87313 7.13962 3.19236C5.22129 5.10778 4.26212 7.66167 4.26212 10.2156V11.4925C2.98323 11.4925 1.70435 12.7695 1.70435 14.0464V14.3656C2.02407 15.6426 2.98323 16.6003 4.26212 16.6003H24.4046C25.6835 16.6003 26.6426 15.6426 26.9624 14.3656C26.9624 13.0887 26.0032 11.8117 24.7243 11.4925H24.4046V10.5348C24.4046 7.66167 23.4454 5.10778 21.5271 3.19236C21.2074 2.87313 20.8876 2.87313 20.5679 2.87313C19.9285 2.87313 19.289 3.5116 19.289 4.15007V5.10778H18.0101V2.55389C18.0101 1.27695 17.3707 0.319236 15.7721 0H14.8129Z" fill="#6FE1B8"/>
</svg>
