<svg width="16" height="17" viewBox="0 0 16 17" fill="none" xmlns="http://www.w3.org/2000/svg">
<path d="M9.05369 5.98736H7.46315V7.90391H9.05369C9.58206 7.90391 10.0119 7.47402 10.0119 6.94565C10.0119 6.41727 9.58209 5.98736 9.05369 5.98736Z" fill="white"/>
<path d="M13.4632 3.16835C10.5021 0.207207 5.70898 0.206763 2.74742 3.16835C-0.213748 6.12947 -0.214222 10.9226 2.74742 13.8842C5.70857 16.8453 10.5017 16.8458 13.4632 13.8842C16.4244 10.9231 16.4248 6.12991 13.4632 3.16835ZM9.05369 9.14864H7.46315V9.80066H8.73755C9.08128 9.80066 9.35993 10.0793 9.35993 10.423C9.35993 10.7668 9.08128 11.0454 8.73755 11.0454H7.46315V11.6876C7.46315 12.0313 7.1845 12.31 6.84077 12.31C6.49703 12.31 6.21838 12.0313 6.21838 11.6876V11.0454H5.57626C5.23253 11.0454 4.95388 10.7668 4.95388 10.423C4.95388 10.0793 5.23253 9.80066 5.57626 9.80066H6.21838V9.14864H5.57626C5.23253 9.14864 4.95388 8.86999 4.95388 8.52626C4.95388 8.18253 5.23253 7.90388 5.57626 7.90388H6.21838V5.36494C6.21838 5.02121 6.49703 4.74256 6.84077 4.74256H9.05369C10.2684 4.74256 11.2567 5.73085 11.2567 6.94559C11.2567 8.16039 10.2685 9.14864 9.05369 9.14864Z" fill="white"/>
</svg>
