<svg width="27" height="27" viewBox="0 0 27 27" fill="none" xmlns="http://www.w3.org/2000/svg">
<circle cx="13.5" cy="13.5" r="13.5" fill="#B6BFE7"/>
<path d="M14.34 14.98H11.925V16.195H15.645V17.215H11.925V19H10.545V17.215H9.27V16.195H10.545V14.98H9.27V13.72H10.545V8.5H14.34C15.25 8.5 16.025 8.82 16.665 9.46C17.305 10.09 17.625 10.855 17.625 11.755C17.625 12.655 17.305 13.42 16.665 14.05C16.025 14.67 15.25 14.98 14.34 14.98ZM14.34 9.805H11.925V13.72H14.34C14.85 13.72 15.295 13.53 15.675 13.15C16.055 12.75 16.245 12.285 16.245 11.755C16.245 11.205 16.06 10.745 15.69 10.375C15.31 9.995 14.86 9.805 14.34 9.805Z" fill="white"/>
</svg>
