<svg width="24" height="24" viewBox="0 0 24 24" fill="none" xmlns="http://www.w3.org/2000/svg">
<path fill-rule="evenodd" clip-rule="evenodd" d="M21.6946 3.20591C21.9171 2.64101 21.3587 2.08312 20.7944 2.30545L2.68946 9.43824C2.09914 9.67081 2.10447 10.5083 2.69771 10.7333L9.20756 13.2028L16.0863 6.32351C16.5255 5.88421 17.2378 5.88418 17.6771 6.32345C18.1164 6.76272 18.1164 7.47495 17.6771 7.91425L10.7984 14.7935L13.2676 21.3023C13.4926 21.8955 14.3298 21.9008 14.5623 21.3105L21.6946 3.20591ZM8.61647 15.3847L1.89977 12.8368C-0.616051 11.8824 -0.63865 8.33139 1.86483 7.3451L2.27715 8.39167L1.86483 7.34509L19.9698 0.212303C22.3644 -0.731123 24.731 1.6362 23.7877 4.0305L22.7411 3.61821L23.7877 4.0305L16.6555 22.1351C15.6692 24.6386 12.1185 24.6161 11.1641 22.1003L8.61647 15.3847Z" fill="white"/>
</svg>
