<svg width="32" height="32" viewBox="0 0 32 32" fill="none" xmlns="http://www.w3.org/2000/svg">
<circle cx="15.9999" cy="16" r="16" fill="url(#paint0_linear_3_428)"/>
<path d="M24.4551 14.2131L23.1912 13.9952C23.0387 13.4068 22.799 12.8402 22.4939 12.3172L23.2348 11.2712C23.4309 11.0097 23.4091 10.6392 23.1694 10.4213L21.5568 8.80872C21.3389 8.56901 20.9685 8.54722 20.707 8.74334L19.661 9.48426C19.138 9.20097 18.5714 8.96126 18.0048 8.80872L17.7869 7.54479C17.7433 7.21792 17.46 7 17.1331 7H14.8668C14.5399 7 14.2566 7.21792 14.213 7.54479L13.9951 8.80872C13.4067 8.96126 12.8401 9.20097 12.3171 9.50605L11.2711 8.76513C11.0096 8.56901 10.6392 8.5908 10.4212 8.83051L8.80866 10.4431C8.56895 10.661 8.54715 11.0315 8.74328 11.293L9.4842 12.339C9.20091 12.862 8.9612 13.4286 8.80866 13.9952L7.54473 14.2131C7.21786 14.2567 6.99994 14.54 6.99994 14.8668V17.1332C6.99994 17.46 7.21786 17.7433 7.54473 17.7869L8.80866 18.0048C8.9612 18.5932 9.20091 19.1598 9.50599 19.6828L8.76507 20.7288C8.56895 20.9903 8.59074 21.3608 8.83045 21.5787L10.443 23.1913C10.661 23.431 11.0314 23.4528 11.2929 23.2567L12.3389 22.5157C12.8619 22.799 13.4285 23.0387 13.9951 23.1913L14.213 24.4552C14.2566 24.7821 14.5399 25 14.8668 25H17.1331C17.46 25 17.7433 24.7821 17.7869 24.4552L18.0048 23.1913C18.5932 23.0387 19.1597 22.799 19.6827 22.4939L20.7288 23.2349C20.9903 23.431 21.3607 23.4092 21.5786 23.1695L23.1912 21.5569C23.4309 21.339 23.4527 20.9685 23.2566 20.707L22.5157 19.661C22.799 19.138 23.0387 18.5714 23.1912 18.0048L24.4551 17.7869C24.782 17.7433 24.9999 17.46 24.9999 17.1332V14.8668C24.9999 14.54 24.782 14.2567 24.4551 14.2131ZM15.9999 19.5956C14.0169 19.5956 12.4043 17.9831 12.4043 16C12.4043 14.0169 14.0169 12.4044 15.9999 12.4044C17.983 12.4044 19.5956 14.0169 19.5956 16C19.5956 17.9831 17.983 19.5956 15.9999 19.5956Z" fill="white"/>
<defs>
<linearGradient id="paint0_linear_3_428" x1="15.9999" y1="0" x2="15.9999" y2="32" gradientUnits="userSpaceOnUse">
<stop stop-color="#4861CD"/>
<stop offset="1" stop-color="#506AD7"/>
</linearGradient>
</defs>
</svg>
