<svg width="34" height="32" viewBox="0 0 34 32" fill="none" xmlns="http://www.w3.org/2000/svg">
<path d="M26.425 31.8504L17 26.0553L7.57502 31.8504C7.23263 32.0635 6.79096 32.0473 6.46125 31.8121C6.13248 31.5779 5.98167 31.1708 6.08088 30.7836L8.7773 20.1845L0.35619 13.1689C0.0448777 12.9127 -0.0767122 12.4959 0.0487957 12.1165C0.174304 11.7361 0.522538 11.4694 0.927218 11.4417L11.9184 10.6875L16.0759 0.55486C16.3814 -0.184953 17.6186 -0.184953 17.9241 0.55486L22.0816 10.6875L33.0728 11.4417C33.4775 11.4694 33.8257 11.7361 33.9512 12.1165C34.0767 12.4959 33.9551 12.9127 33.6438 13.1689L25.2226 20.1846L27.9191 30.7838C28.0183 31.1709 27.8675 31.5781 27.5387 31.8123C27.2022 32.0524 26.7618 32.0578 26.425 31.8504Z" fill="#FFA800"/>
</svg>
