<svg width="36" height="36" viewBox="0 0 36 36" fill="none" xmlns="http://www.w3.org/2000/svg">
<g clip-path="url(#clip0_58_79)">
<path d="M18 36C27.9411 36 36 27.9411 36 18C36 8.05887 27.9411 0 18 0C8.05887 0 0 8.05887 0 18C0 27.9411 8.05887 36 18 36Z" fill="#039BE5"/>
<path d="M8.23604 17.6086L25.591 10.9171C26.3965 10.6261 27.1 11.1136 26.839 12.3316L26.8405 12.3301L23.8855 26.2516C23.6665 27.2386 23.08 27.4786 22.2595 27.0136L17.7595 23.6971L15.589 25.7881C15.349 26.0281 15.1465 26.2306 14.6815 26.2306L15.001 21.6511L23.341 14.1166C23.704 13.7971 23.26 13.6171 22.7815 13.9351L12.475 20.4241L8.03204 19.0381C7.06754 18.7321 7.04654 18.0736 8.23604 17.6086Z" fill="white"/>
</g>
<defs>
<clipPath id="clip0_58_79">
<rect width="36" height="36" fill="white"/>
</clipPath>
</defs>
</svg>
