<svg width="20" height="17" viewBox="0 0 20 17" fill="none" xmlns="http://www.w3.org/2000/svg">
<path d="M12.4706 9.42028C12.4706 10.952 11.2291 12.1997 9.69117 12.1997C8.15941 12.1997 6.91176 10.952 6.91176 9.42028C6.91176 7.88852 8.15941 6.64087 9.69117 6.64087C11.2291 6.64087 12.4706 7.88852 12.4706 9.42028Z" fill="white"/>
<path d="M17.7206 2.32352H14.0641L13.6565 1.10058C13.5329 0.723816 13.1809 0.470581 12.7794 0.470581H6.60294C6.20147 0.470581 5.84941 0.723816 5.72588 1.10058L5.31823 2.32352H2.27941C1.08735 2.32352 0.117645 3.29323 0.117645 4.48529V14.3676C0.117645 15.5597 1.08735 16.5294 2.27941 16.5294H17.7206C18.9126 16.5294 19.8824 15.5597 19.8824 14.3676V4.48529C19.8824 3.29323 18.9126 2.32352 17.7206 2.32352ZM9.69117 14.0526C7.14029 14.0526 5.05882 11.9773 5.05882 9.42029C5.05882 6.8694 7.14029 4.78793 9.69117 4.78793C12.2482 4.78793 14.3235 6.8694 14.3235 9.42029C14.3235 11.9773 12.2482 14.0526 9.69117 14.0526ZM17.1462 6.36911C16.7651 6.73661 16.1993 6.72488 15.8306 6.36911C15.4699 5.99482 15.4847 5.41855 15.8306 5.0597C16.1765 4.71382 16.8003 4.71382 17.1462 5.0597C17.5013 5.41485 17.5149 6.00038 17.1462 6.36911Z" fill="white"/>
</svg>
