<svg width="32" height="32" viewBox="0 0 32 32" fill="none" xmlns="http://www.w3.org/2000/svg">
<circle cx="15.9999" cy="16" r="16" fill="url(#paint0_linear_3_432)"/>
<path d="M15.5012 7C12.7881 7 10.5702 9.10203 10.5702 11.6735C10.5702 14.2449 12.7881 16.347 15.5012 16.347C18.2144 16.347 20.4322 14.2449 20.4322 11.6735C20.4322 9.10203 18.2144 7 15.5012 7Z" fill="#546EDB"/>
<path d="M23.9636 20.0816C23.8344 19.7755 23.6622 19.4898 23.4684 19.2245C22.4778 17.8367 20.9491 16.9184 19.2264 16.6939C19.0111 16.6735 18.7743 16.7143 18.602 16.8367C17.6976 17.4694 16.621 17.7959 15.5013 17.7959C14.3815 17.7959 13.3049 17.4694 12.4005 16.8367C12.2283 16.7143 11.9914 16.653 11.7761 16.6939C10.0535 16.9184 8.50314 17.8367 7.53418 19.2245C7.34039 19.4898 7.16811 19.7959 7.03894 20.0816C6.97436 20.2041 6.99587 20.347 7.06045 20.4694C7.23273 20.7551 7.44804 21.0409 7.64183 21.2857C7.94328 21.6735 8.26628 22.0204 8.63235 22.347C8.9338 22.6327 9.27831 22.898 9.62287 23.1633C11.3239 24.3674 13.3696 25 15.4798 25C17.59 25 19.6356 24.3673 21.3366 23.1633C21.6812 22.9184 22.0257 22.6327 22.3272 22.347C22.6717 22.0204 23.0162 21.6735 23.3177 21.2857C23.533 21.0204 23.7268 20.7551 23.8991 20.4694C24.0067 20.347 24.0282 20.2041 23.9636 20.0816Z" fill="#546EDB"/>
<defs>
<linearGradient id="paint0_linear_3_432" x1="15.9999" y1="0" x2="15.9999" y2="32" gradientUnits="userSpaceOnUse">
<stop stop-color="#64D9AF"/>
<stop offset="1" stop-color="#82F1C9"/>
</linearGradient>
</defs>
</svg>
