<svg width="36" height="36" viewBox="0 0 36 36" fill="none" xmlns="http://www.w3.org/2000/svg">
<g clip-path="url(#clip0_58_82)">
<path d="M5 7C6.2 4.6 9.83333 2.66667 11.5 2C12.5 1.66667 15.4 1 19 1C23.5 1 29.5 3 31.5 5.5C33.5 8 34.5 16.5 34 21.5C33.5 26.5 28.5 28.5 27 29.5C25.8 30.3 19.5 30.1667 16.5 30C15.1667 31.3333 12.4 34.2 12 35C11.6 35.8 10.8333 35.3333 10.5 35V29C10.1667 29 9.1 28.8 7.5 28C5.5 27 3.5 24 3.5 21C3.5 18 3.5 10 5 7Z" fill="white"/>
<path d="M34.7318 20.8383C35.8058 11.7978 34.2158 6.09032 31.3478 3.50882L31.3493 3.50732C26.7203 -0.901184 11.0873 -1.55368 5.54926 3.70532C3.06226 6.27782 2.18626 10.0533 2.09026 14.7273C1.99426 19.4028 1.88026 28.1613 10.0418 30.5373H10.0493L10.0418 34.1658C10.0418 34.1658 9.98626 35.6358 10.9253 35.9313C11.9993 36.2793 12.4853 35.5968 15.8258 31.6068C21.4118 32.0913 25.7018 30.9813 26.1893 30.8193C27.3173 30.4413 33.6998 29.5968 34.7318 20.8383ZM16.3763 29.0538C16.3763 29.0538 12.8408 33.4623 11.7413 34.6068C11.3813 34.9788 10.9868 34.9443 10.9928 34.2063C10.9928 33.7218 11.0198 28.1823 11.0198 28.1823C4.10026 26.1993 4.50826 18.7413 4.58326 14.8398C4.65826 10.9368 5.37226 7.74032 7.47826 5.58782C12.3368 1.03232 26.0423 2.05082 29.5343 5.33282C33.8033 9.11732 32.2838 19.8093 32.2928 20.1738C31.4153 27.4848 26.2433 27.9483 25.2923 28.2648C24.8858 28.3998 21.1133 29.3703 16.3763 29.0538Z" fill="#8E24AA"/>
<path d="M18.3329 6.44434C17.7554 6.44434 17.7554 7.34434 18.3329 7.35184C22.8134 7.38634 26.5034 10.5093 26.5439 16.2378C26.5439 16.8423 27.4289 16.8348 27.4214 16.2303H27.4199C27.3719 10.0578 23.3429 6.47884 18.3329 6.44434Z" fill="#8E24AA"/>
<path d="M24.2253 15.2896C24.2118 15.8866 25.0953 15.9151 25.1028 15.3106C25.1763 11.9071 23.0778 9.10355 19.1343 8.80805C18.5568 8.76605 18.4968 9.67355 19.0728 9.71555C22.4928 9.97505 24.2943 12.3091 24.2253 15.2896Z" fill="#8E24AA"/>
<path d="M23.2803 19.1607C22.5393 18.7317 21.7848 18.9987 21.4728 19.4202L20.8203 20.2647C20.4888 20.6937 19.8693 20.6367 19.8693 20.6367C15.3484 19.4412 14.1394 14.7102 14.1394 14.7102C14.1394 14.7102 14.0839 14.0697 14.4979 13.7262L15.3139 13.0512C15.7219 12.7272 15.9799 11.9472 15.5644 11.1807C14.4544 9.17517 13.7089 8.48367 13.3294 7.95267C12.9304 7.45317 12.3304 7.34067 11.7064 7.67817H11.6929C10.3954 8.43717 8.97486 9.85767 9.42936 11.3202C10.2049 12.8622 11.6299 17.7777 16.1719 21.4917C18.3063 23.2482 21.6843 25.0482 23.1183 25.4637L23.1318 25.4847C24.5448 25.9557 25.9188 24.4797 26.6523 23.1432V23.1327C26.9778 22.4862 26.8698 21.8742 26.3943 21.4737C25.5513 20.6517 24.2793 19.7442 23.2803 19.1607Z" fill="#8E24AA"/>
<path d="M19.7534 12.155C21.1949 12.239 21.8939 12.992 21.9689 14.5385C21.9959 15.143 22.8734 15.101 22.8464 14.4965C22.7504 12.4775 21.6974 11.3525 19.8014 11.2475C19.2239 11.213 19.1699 12.1205 19.7534 12.155Z" fill="#8E24AA"/>
</g>
<defs>
<clipPath id="clip0_58_82">
<rect width="36" height="36" fill="white"/>
</clipPath>
</defs>
</svg>
