<svg width="36" height="36" viewBox="0 0 36 36" fill="none" xmlns="http://www.w3.org/2000/svg">
<g clip-path="url(#clip0_58_76)">
<path d="M18.0045 0H17.9955C8.07075 0 0 8.073 0 18C0 21.9375 1.269 25.587 3.42675 28.5503L1.1835 35.2373L8.10225 33.0255C10.9485 34.911 14.3438 36 18.0045 36C27.9292 36 36 27.9247 36 18C36 8.07525 27.9292 0 18.0045 0Z" fill="#4CAF50"/>
<path d="M28.479 25.4191C28.0447 26.6454 26.3212 27.6624 24.9465 27.9594C24.006 28.1596 22.7775 28.3194 18.642 26.6049C13.3522 24.4134 9.94572 19.0381 9.68022 18.6894C9.42597 18.3406 7.54272 15.8431 7.54272 13.2601C7.54272 10.6771 8.85447 9.41939 9.38322 8.87939C9.81747 8.43614 10.5352 8.23364 11.2237 8.23364C11.4465 8.23364 11.6467 8.24489 11.8267 8.25389C12.3555 8.27639 12.621 8.30789 12.9697 9.14264C13.404 10.1889 14.4615 12.7719 14.5875 13.0374C14.7157 13.3029 14.844 13.6629 14.664 14.0116C14.4952 14.3716 14.3467 14.5314 14.0812 14.8374C13.8157 15.1434 13.5637 15.3774 13.2982 15.7059C13.0552 15.9916 12.7807 16.2976 13.0867 16.8264C13.3927 17.3439 14.4502 19.0696 16.0072 20.4556C18.0165 22.2444 19.6455 22.8159 20.2282 23.0589C20.6625 23.2389 21.18 23.1961 21.4972 22.8586C21.9 22.4244 22.3972 21.7044 22.9035 20.9956C23.2635 20.4871 23.718 20.4241 24.195 20.6041C24.681 20.7729 27.2527 22.0441 27.7815 22.3074C28.3102 22.5729 28.659 22.6989 28.7872 22.9216C28.9132 23.1444 28.9132 24.1906 28.479 25.4191Z" fill="#FAFAFA"/>
</g>
<defs>
<clipPath id="clip0_58_76">
<rect width="36" height="36" fill="white"/>
</clipPath>
</defs>
</svg>
