<svg width="10" height="10" viewBox="0 0 10 10" fill="none" xmlns="http://www.w3.org/2000/svg">
<path fill-rule="evenodd" clip-rule="evenodd" d="M5 10C7.7614 10 10 7.7614 10 5C10 2.23858 7.7614 0 5 0C2.23858 0 0 2.23858 0 5C0 7.7614 2.23858 10 5 10ZM7.35355 4.35355C7.5488 4.1583 7.5488 3.84171 7.35355 3.64645C7.1583 3.45119 6.8417 3.45119 6.64645 3.64645L4.5 5.7929L3.85356 5.14645C3.65829 4.9512 3.34171 4.9512 3.14645 5.14645C2.95119 5.3417 2.95119 5.6583 3.14645 5.85355L4.14645 6.85355C4.3417 7.0488 4.6583 7.0488 4.85355 6.85355L7.35355 4.35355Z" fill="url(#paint0_linear_3_1793)"/>
<defs>
<linearGradient id="paint0_linear_3_1793" x1="0" y1="0" x2="10" y2="10" gradientUnits="userSpaceOnUse">
<stop offset="0.114583" stop-color="white"/>
<stop offset="1" stop-color="white" stop-opacity="0.5"/>
</linearGradient>
</defs>
</svg>
