<svg width="19" height="19" viewBox="0 0 19 19" fill="none" xmlns="http://www.w3.org/2000/svg">
<circle cx="9.5" cy="9.5" r="9.5" fill="#546EDB"/>
<path fill-rule="evenodd" clip-rule="evenodd" d="M14 14.5281V7.42894H11.1852C10.984 7.42894 10.8211 7.25311 10.8211 7.03601V4H6.43753C6.1962 4 6 4.21175 6 4.47205V14.5281C6 14.7884 6.19622 15 6.43753 15H13.5622C13.8036 15 14 14.7884 14 14.5281ZM11.5494 6.64321V4.55558L13.4848 6.64321H11.5494ZM12.6042 12.4226C12.6042 12.6394 12.4411 12.8155 12.2399 12.8155H7.75992C7.55888 12.8155 7.39563 12.6395 7.39563 12.4226C7.39563 12.2055 7.55888 12.0298 7.75992 12.0298H12.2399C12.4411 12.0298 12.6042 12.2055 12.6042 12.4226ZM12.6042 9.74129C12.6042 9.95826 12.4411 10.1341 12.2399 10.1341H7.75992C7.55888 10.1341 7.39563 9.95826 7.39563 9.74129C7.39563 9.52432 7.55888 9.34849 7.75992 9.34849H12.2399C12.4411 9.34849 12.6042 9.52432 12.6042 9.74129Z" fill="white"/>
</svg>
