<svg width="19" height="19" viewBox="0 0 19 19" fill="none" xmlns="http://www.w3.org/2000/svg">
<circle cx="9.5" cy="9.5" r="9.5" fill="#546EDB"/>
<path d="M4.13213 6.75123C4.39494 7.91257 4.89039 8.91716 5.56502 9.65662C6.18225 10.3331 6.99994 10.754 7.57712 10.9881C8.23456 11.2544 8.94095 11.3504 9.60655 11.4145C9.62112 11.416 9.63569 11.4173 9.6504 11.4187C9.67837 11.4214 9.70649 11.424 9.7346 11.4264C9.76272 11.4291 9.79098 11.4315 9.8191 11.434C9.925 11.4433 10.0308 11.4522 10.1343 11.461L10.1476 11.462L10.1112 11.8976L10.0979 11.8964C9.9234 11.8818 9.74291 11.8667 9.5646 11.8495C9.54347 11.8475 9.52221 11.8454 9.50108 11.8432C9.47253 11.8405 9.44398 11.8376 9.41542 11.8345C9.38731 11.8317 9.35919 11.8287 9.33093 11.8256C9.16267 12.0521 9.03375 12.302 8.95159 12.5616C8.31745 12.7116 7.61849 12.7029 6.87364 12.5353L6.77691 12.5136L6.78507 12.6124C6.83839 13.2578 7.1261 13.8884 7.59504 14.3881C8.03411 14.8557 8.61697 15.1983 9.28053 15.379L9.32802 15.3919L9.35774 15.3526C9.73839 14.8474 9.97089 14.2829 10.0331 13.7149C10.1746 13.7405 10.3221 13.7398 10.4631 13.7129L10.4879 13.6962L10.6087 13.6147C10.624 13.6374 10.6382 13.6608 10.6515 13.6847C10.7506 13.8641 10.7896 14.0749 10.7657 14.2779C10.9098 14.1908 11.0233 14.0523 11.0732 13.8906C11.0948 13.8207 11.1043 13.7475 11.1022 13.6747L11.2472 13.6715L11.3239 13.6697L11.3927 13.6681C11.3934 13.6923 11.3933 13.7163 11.3921 13.7402C11.5413 13.9917 11.5668 14.3044 11.4746 14.5785C11.668 14.4835 11.8274 14.2996 11.888 14.0795C11.9281 13.9338 11.9269 13.7748 11.8892 13.6199C11.8833 13.5965 11.8766 13.5729 11.8692 13.5497C11.8618 13.5264 11.8536 13.5032 11.8445 13.4804C11.801 13.3707 11.739 13.2662 11.66 13.1737C11.6524 13.1648 11.6447 13.1559 11.6369 13.1473L11.7441 13.0496L11.7444 13.0493L11.852 12.9511C11.9751 13.086 12.0684 13.2409 12.1287 13.4043C12.1371 13.427 12.1448 13.4499 12.1518 13.4729C12.1593 13.4962 12.1658 13.5198 12.1716 13.5434C12.9271 13.29 13.5642 12.6804 13.8175 11.921C13.9718 11.4585 13.9896 10.9649 14.0067 10.4876C14.0104 10.3849 14.0142 10.2787 14.0193 10.1749C14.0459 9.63783 14.1196 9.02584 14.464 8.55807C14.5205 8.4813 14.7229 8.23466 14.9554 8.28201L15.0483 8.30095L15.0427 8.20626C15.0109 7.67322 14.7533 7.20953 14.3537 6.96582C13.9477 6.71802 13.416 6.70607 12.9994 6.93566C12.9555 6.95984 12.9121 6.98694 12.8705 7.01622C12.4987 7.27582 12.2762 7.69275 12.0611 8.09583C11.9039 8.39039 11.7426 8.69282 11.5231 8.93144C11.5315 8.95839 11.54 8.9849 11.5484 9.01083C11.5572 9.0372 11.5659 9.06298 11.5747 9.08804C11.5758 9.09125 11.5768 9.09431 11.578 9.09751C11.7289 9.52449 11.9205 9.82866 12.1638 10.0271L12.0257 10.1964L11.8876 10.3658C11.8749 10.3554 11.8622 10.3449 11.8498 10.3339C11.6061 10.1237 11.4084 9.83624 11.2502 9.46083C11.2392 9.4349 11.2284 9.40838 11.2177 9.38143C11.2073 9.35478 11.1969 9.32783 11.1867 9.30029C11.1797 9.28135 11.1729 9.26227 11.166 9.24304C11.1446 9.18229 11.1232 9.11776 11.1027 9.05089C11.0728 8.95402 11.0451 8.85627 11.0186 8.75939C11.0115 8.73346 11.0045 8.70768 10.9976 8.68189C10.9905 8.65553 10.9835 8.6293 10.9765 8.60323C10.9758 8.60061 10.9752 8.59813 10.9745 8.59565C10.9152 8.37393 10.8581 8.1611 10.7849 7.95686C10.7849 7.95671 10.7848 7.95642 10.7846 7.95628C10.7557 7.87484 10.7239 7.79501 10.6885 7.71635C10.6509 7.63302 10.609 7.55144 10.5628 7.47219C10.5628 7.47219 10.5628 7.47204 10.5626 7.47204C10.5033 7.36949 10.4369 7.27086 10.3645 7.17676C10.3644 7.17661 10.3644 7.17661 10.3644 7.17647C10.1609 6.91162 9.90927 6.68233 9.62535 6.50679C9.59344 6.48683 9.55921 6.46673 9.52119 6.44546C9.03142 6.17231 8.47974 6.05534 7.89557 5.93136C7.58615 5.86566 7.26624 5.79792 6.95609 5.70454C6.36144 5.5258 5.78164 5.24202 5.27935 4.88424C4.89228 4.60832 4.54994 4.28754 4.2733 3.94287C3.96694 4.81198 3.9158 5.79486 4.13213 6.75123Z" fill="white"/>
<path d="M9.24534 5.83867C9.26806 5.84727 9.29079 5.85615 9.31337 5.86519C9.39976 5.89942 9.48512 5.93686 9.56932 5.97765L9.56947 5.9778C9.62497 6.00489 9.68004 6.03344 9.73438 6.06375C9.77881 6.08851 9.81902 6.11226 9.85616 6.13542C10.3918 6.46669 10.8289 6.96418 11.087 7.53655C11.1836 7.75084 11.255 7.97256 11.3176 8.19297C11.3265 8.224 11.3351 8.25488 11.3435 8.28562C11.352 8.31607 11.3601 8.34651 11.3683 8.37681C11.5146 8.17359 11.6347 7.94838 11.7526 7.72724C11.9692 7.32138 12.1737 6.9381 12.517 6.69832L12.5572 6.6702L12.5401 6.59518C12.336 5.69926 12.1598 4.92542 13.0769 3.1349L13.146 3L12.9976 3.0303C12.0397 3.22595 11.4918 3.39493 10.7774 3.87989C10.1818 4.28444 9.69461 4.90707 9.24534 5.83867Z" fill="white"/>
</svg>
