<svg width="19" height="19" viewBox="0 0 19 19" fill="none" xmlns="http://www.w3.org/2000/svg">
<g clip-path="url(#clip0_92_2630)">
<path fill-rule="evenodd" clip-rule="evenodd" d="M9.5 0C14.7467 0 19 4.25329 19 9.5C19 14.7467 14.7467 19 9.5 19C4.25329 19 0 14.7467 0 9.5C0 4.25329 4.25329 0 9.5 0ZM12.0031 12.3757L15.1189 8.41949L14.3169 7.78725L11.1999 11.7433L12.0031 12.3757ZM11.3186 8.58692C11.5464 8.58692 11.7293 8.40301 11.7293 8.17609C11.7293 7.94909 11.5464 7.76521 11.3186 7.76521H6.30804C6.0803 7.76521 5.89612 7.94905 5.89612 8.17609C5.89612 8.40301 6.08026 8.58692 6.30804 8.58692H11.3186ZM4.57325 3.85077V15.1493C4.57325 15.205 4.62049 15.252 4.67623 15.252H13.3902C13.4459 15.252 13.4932 15.205 13.4932 15.1493V11.8116L12.2345 13.4085C12.1897 13.4653 12.1315 13.5092 12.0649 13.5359L10.3531 14.2195C10.3034 14.2392 10.2513 14.249 10.2004 14.249C10.1096 14.249 10.0199 14.2187 9.94602 14.1606C9.83094 14.07 9.77279 13.9244 9.79339 13.7793L10.0575 11.9549C10.0684 11.8835 10.0975 11.816 10.1411 11.7592L13.4932 7.50481V5.86013L11.3816 3.74805H4.67619C4.62049 3.74801 4.57325 3.79503 4.57325 3.85077ZM11.3186 6.71876C11.5464 6.71876 11.7293 6.53492 11.7293 6.30793C11.7293 6.08096 11.5464 5.89709 11.3186 5.89709H6.30804C6.0803 5.89709 5.89612 6.08096 5.89612 6.30793C5.89612 6.53492 6.08026 6.71876 6.30804 6.71876H11.3186ZM8.76 11.9123C8.76 11.6853 8.57587 11.5014 8.34931 11.5014H6.30804C6.0803 11.5014 5.89612 11.6853 5.89612 11.9123C5.89612 12.1393 6.08026 12.3231 6.30804 12.3231H8.34931C8.57587 12.3231 8.76 12.1393 8.76 11.9123ZM9.89637 10.0442C9.89637 9.81717 9.71223 9.63333 9.48445 9.63333H6.30804C6.0803 9.63333 5.89612 9.81717 5.89612 10.0442C5.89612 10.2712 6.08026 10.455 6.30804 10.455H9.48445C9.71223 10.455 9.89637 10.2712 9.89637 10.0442ZM15.6277 7.77393L15.9112 7.41471L15.108 6.78248L14.8245 7.14177L15.6277 7.77393ZM10.811 12.4833L10.7092 13.1926L11.3743 12.9268L10.811 12.4833Z" fill="#546EDB"/>
</g>
<defs>
<clipPath id="clip0_92_2630">
<rect width="19" height="19" fill="white"/>
</clipPath>
</defs>
</svg>
