<svg width="19" height="19" viewBox="0 0 19 19" fill="none" xmlns="http://www.w3.org/2000/svg">
<g clip-path="url(#clip0_2_1299)">
<circle cx="9.5" cy="9.5" r="9.5" fill="white"/>
<path d="M7.50171 6.57848C7.22451 6.94551 7.23316 7.5124 7.52677 7.86738C7.67979 8.05217 7.88081 8.14451 8.08175 8.14451C8.28391 8.14451 8.48616 8.05089 8.63933 7.86386L9.70274 6.56546H11.152L13.599 9.5L15 7.94092L11.7815 4L11.152 4.75109H9.47265C9.25015 4.75109 9.03452 4.83149 8.85309 4.97887C8.79365 5.02675 8.73796 5.08198 8.68685 5.14377L7.52661 6.54685C7.51804 6.55714 7.50963 6.56771 7.50171 6.57848Z" fill="#546EDB"/>
<path d="M10.4271 7.65255H9.49714L8.6146 8.54024C8.34638 8.81026 7.98781 8.95893 7.60479 8.95893C7.22449 8.95893 6.86771 8.81213 6.59991 8.54542C6.33505 8.28188 6.18918 7.93214 6.18918 7.56052C6.18893 7.18898 6.33489 6.83924 6.5995 6.57545L7.76477 5.41466C7.7792 5.40032 7.79396 5.38615 7.80889 5.37245L7.35732 5.1L4 8.83246L4.43828 9.64707C4.62728 9.5492 4.83876 9.49727 5.05827 9.49727C5.41643 9.49727 5.75279 9.63524 6.00567 9.88566C6.185 10.0631 6.30693 10.2824 6.36236 10.5212C6.60393 10.5765 6.82548 10.6976 7.00506 10.8752C7.18808 11.0567 7.30665 11.2779 7.36093 11.5109C7.60291 11.5659 7.82488 11.6873 8.00461 11.8653C8.1837 12.0426 8.30579 12.2619 8.36131 12.5008C8.60287 12.556 8.82443 12.6771 9.00376 12.8547C9.5251 13.3709 9.52404 14.2097 9.00163 14.7248L8.97932 14.7468C9.16874 14.9157 9.40817 15 9.64761 15C9.90369 15 10.1597 14.9036 10.3543 14.7109C10.4742 14.5922 10.5568 14.4506 10.6026 14.3003C10.7069 14.3352 10.8157 14.3528 10.9246 14.3528C11.1805 14.3528 11.4366 14.2564 11.6312 14.0637C11.7687 13.9277 11.8572 13.7615 11.8973 13.5864C11.9638 13.6001 12.0319 13.6072 12.1012 13.6072C12.3678 13.6069 12.6195 13.504 12.8078 13.3176C13.0399 13.0877 13.133 12.7725 13.0877 12.4736C13.2841 12.4374 13.4647 12.3437 13.6089 12.2011C13.9976 11.8163 13.9969 11.1907 13.6075 10.8064L10.4271 7.65255Z" fill="#546EDB"/>
<path d="M9.26121 13.5841C9.12655 13.4706 8.95444 13.4077 8.77834 13.3953C8.73355 13.3921 8.68866 13.3921 8.64386 13.3953C8.4853 13.4071 8.32991 13.4595 8.2027 13.5534C8.19943 13.5553 8.19643 13.5577 8.19334 13.56C8.18798 13.5638 8.18289 13.5678 8.1778 13.5719C8.17726 13.5723 8.17662 13.5727 8.17617 13.5732C8.17262 13.5757 8.16935 13.5784 8.1659 13.5812C8.28884 13.4751 8.3609 13.3432 8.38134 13.2065C8.38507 13.1843 8.38716 13.1622 8.38761 13.1399C8.38816 13.1339 8.38816 13.128 8.38816 13.1219C8.38816 12.954 8.31174 12.7858 8.15917 12.6573C8.00606 12.5285 7.80506 12.4639 7.60398 12.4639C7.59771 12.4639 7.59162 12.4639 7.58535 12.4643C7.51829 12.4655 7.45123 12.4739 7.38617 12.4897C7.26759 12.5183 7.15582 12.5707 7.06095 12.6476C7.0605 12.6477 7.06004 12.6481 7.05914 12.6487C7.05823 12.6493 7.05723 12.6501 7.05659 12.6511C7.05423 12.6526 7.05214 12.6544 7.05005 12.6562C7.14301 12.5783 7.20779 12.4858 7.24432 12.3874C7.26858 12.3233 7.2804 12.2566 7.2804 12.1899C7.2804 12.1727 7.27976 12.1553 7.27785 12.1381C7.26386 11.9875 7.18844 11.8403 7.05141 11.7251C6.89812 11.5962 6.69739 11.5319 6.49658 11.5319C6.49049 11.5319 6.48422 11.5319 6.47813 11.5322C6.36564 11.5342 6.25333 11.5567 6.15019 11.5995C6.07931 11.6285 6.01316 11.6668 5.95355 11.7151C5.95428 11.7146 5.95492 11.7137 5.95537 11.7133C5.9561 11.7126 5.95683 11.7122 5.95746 11.7114C5.95955 11.7096 5.96146 11.7078 5.9631 11.7063C5.96564 11.7042 5.968 11.702 5.97055 11.6997C5.97291 11.6975 5.97545 11.6953 5.97773 11.693C6.02252 11.6504 6.05951 11.604 6.08867 11.5554C6.14174 11.4676 6.16973 11.3719 6.17254 11.2757C6.173 11.2698 6.173 11.264 6.173 11.2581C6.173 11.0899 6.09676 10.9219 5.94401 10.7935C5.7909 10.6644 5.5899 10.6 5.38891 10.6C5.2656 10.6 5.14238 10.6243 5.03007 10.6725C4.96883 10.6992 4.9104 10.733 4.85724 10.7741C4.8517 10.778 4.84652 10.7823 4.84116 10.7868L4.23017 11.2987C4.0766 11.4273 4 11.596 4 11.7647C4 12.1028 4.33766 12.4024 4.73821 12.4218C4.75338 12.4227 4.76874 12.4231 4.78391 12.4231C4.97373 12.4231 5.16292 12.3658 5.31249 12.2511C5.31312 12.2507 5.31358 12.2501 5.3143 12.2497L5.31548 12.2488C5.31576 12.2486 5.31594 12.2484 5.31685 12.2476C5.31848 12.2465 5.31994 12.2452 5.32157 12.2441L5.23652 12.3151C5.22653 12.3235 5.21671 12.3319 5.2079 12.3407C5.20717 12.3413 5.20644 12.342 5.20572 12.3427C5.20526 12.343 5.20481 12.3433 5.20463 12.3436C5.1969 12.3507 5.18972 12.3579 5.18246 12.3652C5.08459 12.4633 5.02689 12.5803 5.00917 12.7003C4.95656 13.0568 5.29913 13.4099 5.72475 13.44C5.94238 13.4558 6.166 13.3946 6.33374 13.2563L6.3372 13.2534L6.33865 13.2524C6.19399 13.3756 6.11939 13.535 6.11448 13.6957C6.11403 13.7016 6.11403 13.7075 6.11403 13.7133C6.11403 14.0699 6.47468 14.3716 6.89812 14.3716C7.01416 14.3716 7.12992 14.3502 7.2366 14.3074C7.31447 14.2762 7.38735 14.2335 7.45214 14.1794L7.80179 13.8866C7.80152 13.8867 7.80179 13.8864 7.80179 13.8866C7.80107 13.887 7.80016 13.888 7.79989 13.8883C7.79689 13.8911 7.79389 13.894 7.79016 13.8975C7.78544 13.9015 7.78153 13.9054 7.77753 13.9092C7.77635 13.9102 7.77544 13.9112 7.77472 13.9122C7.6117 14.0694 7.55373 14.2767 7.60052 14.4695C7.67385 14.7715 8.00534 14.9998 8.37198 15C8.57644 15.0002 8.77553 14.931 8.92019 14.8098L9.21069 14.5667L9.27221 14.5151C9.57552 14.2613 9.57598 13.8491 9.2733 13.5944L9.26121 13.5841Z" fill="#546EDB"/>
</g>
<defs>
<clipPath id="clip0_2_1299">
<rect width="19" height="19" fill="white"/>
</clipPath>
</defs>
</svg>
