<svg width="19" height="19" viewBox="0 0 19 19" fill="none" xmlns="http://www.w3.org/2000/svg">
<circle cx="9.5" cy="9.5" r="9.5" fill="white"/>
<path d="M14.175 7.875V7.60411C14.175 5.84489 13.1723 4.31706 11.7 3.5421V6.79161H10.6001V3.13325C10.2465 3.04972 9.87983 3 9.5 3C9.12017 3 8.75353 3.04972 8.39993 3.13325V6.79161H7.30003V3.5421C5.82723 4.31706 4.82501 5.84472 4.82501 7.60411V7.875H4V8.95839H15V7.875H14.175Z" fill="#546EDB"/>
<path d="M4.82501 10.5834C4.82501 11.3429 5.35681 11.9755 6.07226 12.1533C6.70916 14.4342 8.0036 16 9.5 16C10.9964 16 12.2908 14.4342 12.9277 12.1533C13.6432 11.9755 14.175 11.3429 14.175 10.5834V10.0416H4.82501V10.5834Z" fill="#546EDB"/>
</svg>
