<svg width="19" height="19" viewBox="0 0 19 19" fill="none" xmlns="http://www.w3.org/2000/svg">
<circle cx="9.5" cy="9.5" r="9.5" fill="white"/>
<path d="M9.89286 11.4643V10.2857H9.10714V11.4643C9.10714 11.5685 9.14853 11.6684 9.22221 11.7421C9.29588 11.8158 9.39581 11.8571 9.5 11.8571C9.60419 11.8571 9.70412 11.8158 9.77779 11.7421C9.85147 11.6684 9.89286 11.5685 9.89286 11.4643Z" fill="#546EDB"/>
<path d="M10.6786 11.3975V11.4643C10.6786 11.7769 10.5544 12.0766 10.3334 12.2977C10.1124 12.5187 9.81258 12.6429 9.5 12.6429C9.18742 12.6429 8.88765 12.5187 8.66662 12.2977C8.4456 12.0766 8.32143 11.7769 8.32143 11.4643V11.3975L4.60107 10.2543C4.53036 10.2307 4.45964 10.1993 4.39286 10.1718V13.8214C4.39286 14.134 4.51703 14.4338 4.73805 14.6548C4.95908 14.8758 5.25885 15 5.57143 15H13.4286C13.7411 15 14.0409 14.8758 14.2619 14.6548C14.483 14.4338 14.6071 14.134 14.6071 13.8214V10.1718C14.5404 10.1993 14.4736 10.2307 14.3989 10.2543L10.6786 11.3975Z" fill="#546EDB"/>
<path d="M13.8214 5.57143H11.8571V5.17857C11.8571 4.86599 11.733 4.56622 11.5119 4.3452C11.2909 4.12417 10.9911 4 10.6786 4H8.32143C8.00885 4 7.70908 4.12417 7.48805 4.3452C7.26703 4.56622 7.14286 4.86599 7.14286 5.17857V5.57143H5.17857C4.86599 5.57143 4.56622 5.6956 4.3452 5.91662C4.12417 6.13765 4 6.43742 4 6.75V8.37643C4.00067 8.62809 4.08189 8.87293 4.23175 9.07511C4.38162 9.27728 4.59226 9.42618 4.83286 9.5L8.32143 10.5764V9.89286C8.32143 9.78866 8.36282 9.68874 8.43649 9.61506C8.51017 9.54139 8.61009 9.5 8.71429 9.5H10.2857C10.3899 9.5 10.4898 9.54139 10.5635 9.61506C10.6372 9.68874 10.6786 9.78866 10.6786 9.89286V10.5764L14.1671 9.5C14.4077 9.42618 14.6184 9.27728 14.7682 9.07511C14.9181 8.87293 14.9993 8.62809 15 8.37643V6.75C15 6.43742 14.8758 6.13765 14.6548 5.91662C14.4338 5.6956 14.134 5.57143 13.8214 5.57143ZM7.92857 5.57143V5.17857C7.92857 5.07438 7.96996 4.97445 8.04364 4.90078C8.11731 4.8271 8.21724 4.78571 8.32143 4.78571H10.6786C10.7828 4.78571 10.8827 4.8271 10.9564 4.90078C11.03 4.97445 11.0714 5.07438 11.0714 5.17857V5.57143H7.92857Z" fill="#546EDB"/>
</svg>
