<svg width="297" height="139" viewBox="0 0 297 139" fill="none" xmlns="http://www.w3.org/2000/svg">
<g clip-path="url(#clip0_15_1879)">
<g style="mix-blend-mode:multiply" opacity="0.2">
<path d="M160.739 96.7292L117.685 35.2481C116.092 32.9731 112.918 32.4078 110.63 33.993L61.0346 68.3477C58.7472 69.9329 58.1788 73.0894 59.7726 75.3645L102.826 136.848C104.42 139.123 107.594 139.688 109.881 138.103L159.477 103.746C161.764 102.161 162.333 99.0042 160.739 96.7292Z" fill="#3A7EC1"/>
</g>
<path d="M162.873 98.012L108.321 135.802C107.397 136.442 106.115 136.213 105.471 135.294L58.9638 68.8833C58.3199 67.9642 58.5505 66.6893 59.4746 66.0489L114.027 28.259C114.951 27.6186 116.233 27.8478 116.877 28.7669L163.382 95.1776C164.026 96.0967 163.795 97.3716 162.871 98.012H162.873Z" fill="#E4ECF9"/>
<path d="M87.2299 54.652L68.0968 67.9074C67.8734 68.0622 67.8185 68.3677 67.9741 68.5898L69.5746 70.875C69.7302 71.0972 70.0373 71.1518 70.2607 70.9971L89.3938 57.7417C89.6171 57.587 89.6721 57.2814 89.5165 57.0593L87.916 54.7741C87.7604 54.5519 87.4532 54.4973 87.2299 54.652Z" fill="#52D1BD"/>
<path d="M120.41 47.8191L80.8265 75.238C80.6039 75.3921 80.2958 75.3368 80.1408 75.1154L78.539 72.8285C78.384 72.6072 78.4397 72.3008 78.6622 72.1466L118.246 44.7277C118.468 44.5735 118.776 44.6289 118.932 44.8503L120.533 47.1371C120.688 47.3585 120.633 47.6649 120.41 47.8191Z" fill="#E4ECF9"/>
<path d="M125.519 55.1146L80.8164 86.0794C80.5939 86.2336 80.2858 86.1783 80.1308 85.9569L78.529 83.67C78.374 83.4486 78.4297 83.1423 78.6522 82.9881L123.355 52.0232C123.578 51.869 123.886 51.9244 124.041 52.1458L125.643 54.4326C125.798 54.654 125.742 54.9604 125.519 55.1146Z" fill="#E4ECF9"/>
<path d="M130.629 62.4101L85.9258 93.3749C85.7032 93.5291 85.3952 93.4738 85.2402 93.2524L83.6384 90.9655C83.4834 90.7441 83.539 90.4378 83.7616 90.2836L128.465 59.3187C128.687 59.1645 128.995 59.2199 129.15 59.4413L130.752 61.7281C130.907 61.9495 130.851 62.2559 130.629 62.4101Z" fill="#E4ECF9"/>
<path d="M133.576 66.6097L88.8763 97.5774C88.653 97.7321 88.598 98.0376 88.7536 98.2598L90.3541 100.545C90.5097 100.767 90.8169 100.822 91.0402 100.667L135.74 69.6994C135.963 69.5447 136.018 69.2391 135.862 69.017L134.262 66.7318C134.106 66.5096 133.799 66.455 133.576 66.6097Z" fill="#E4ECF9"/>
<path d="M138.684 73.9055L93.9845 104.873C93.7611 105.028 93.7062 105.333 93.8618 105.556L95.4623 107.841C95.6179 108.063 95.925 108.118 96.1484 107.963L140.848 76.9952C141.071 76.8405 141.126 76.5349 140.97 76.3128L139.37 74.0276C139.214 73.8054 138.907 73.7508 138.684 73.9055Z" fill="#E4ECF9"/>
<path d="M145.955 84.2985L101.252 115.263C101.03 115.418 100.722 115.362 100.567 115.141L98.9648 112.854C98.8098 112.633 98.8654 112.326 99.088 112.172L143.791 81.2072C144.014 81.053 144.322 81.1084 144.477 81.3297L146.078 83.6166C146.233 83.838 146.178 84.1444 145.955 84.2985Z" fill="#E4ECF9"/>
<path d="M151.065 91.596L106.362 122.561C106.139 122.715 105.831 122.66 105.676 122.438L104.074 120.151C103.919 119.93 103.975 119.624 104.197 119.47L148.9 88.5047C149.123 88.3505 149.431 88.4059 149.586 88.6272L151.188 90.9141C151.343 91.1355 151.287 91.4419 151.065 91.596Z" fill="#E4ECF9"/>
<g style="mix-blend-mode:multiply" opacity="0.2">
<path d="M219.943 77.7067C219.943 77.7067 219.943 77.7008 219.943 77.6988C219.936 77.6375 219.93 77.5782 219.92 77.5189C219.888 77.2995 219.83 77.0881 219.749 76.8864C219.731 76.839 219.709 76.7896 219.687 76.7402C219.639 76.6295 219.584 76.5267 219.522 76.4259C219.502 76.3923 219.482 76.3587 219.461 76.3271C219.433 76.2836 219.405 76.2421 219.373 76.1986C219.369 76.1927 219.363 76.1867 219.357 76.1788L219.234 76.0207C219.234 76.0207 219.234 76.0187 219.232 76.0207L215.671 71.5102L219.441 57.1781C220.21 54.2528 218.449 51.2603 215.508 50.4953L194.836 45.1171L189.873 38.8296C189.011 37.7346 187.518 37.3472 186.228 37.8809L178.806 40.9446L157.154 35.3114C154.213 34.5464 151.204 36.2977 150.435 39.223L146.472 54.2943L142.318 56.008L142.134 56.0851C142.134 56.0851 142.116 56.091 142.11 56.0949C141.615 56.3223 141.184 56.678 140.87 57.1326C140.671 57.4192 140.518 57.7434 140.424 58.0972L129.693 98.9054L129.58 99.3363L129.546 99.4667C129.526 99.5438 129.508 99.6189 129.496 99.694C129.492 99.7118 129.49 99.7296 129.486 99.7474C129.484 99.7612 129.482 99.7731 129.48 99.7869C129.48 99.7948 129.478 99.8027 129.476 99.8107C129.476 99.8186 129.476 99.8265 129.474 99.8344C129.466 99.8798 129.462 99.9292 129.456 99.9747C129.456 99.9826 129.454 99.9925 129.456 100C129.456 100.018 129.456 100.036 129.454 100.056C129.454 100.076 129.452 100.095 129.452 100.113C129.452 100.123 129.452 100.133 129.452 100.143C129.452 100.153 129.452 100.161 129.452 100.17C129.452 100.222 129.452 100.273 129.452 100.327C129.452 100.336 129.452 100.348 129.452 100.358C129.452 100.38 129.454 100.402 129.456 100.425C129.456 100.449 129.456 100.473 129.46 100.497C129.466 100.552 129.472 100.609 129.478 100.663C129.478 100.665 129.478 100.667 129.478 100.668C129.484 100.706 129.492 100.742 129.498 100.779C129.5 100.795 129.502 100.813 129.504 100.829C129.512 100.876 129.524 100.925 129.536 100.975C129.538 100.983 129.54 100.989 129.542 100.997C129.544 101.006 129.548 101.016 129.55 101.028C129.558 101.058 129.566 101.086 129.576 101.115C129.58 101.127 129.586 101.139 129.59 101.151C129.605 101.202 129.621 101.254 129.641 101.305C129.645 101.315 129.647 101.327 129.651 101.339C129.669 101.39 129.693 101.437 129.715 101.487C129.727 101.51 129.737 101.536 129.749 101.56C129.764 101.595 129.782 101.629 129.798 101.661C129.806 101.675 129.814 101.686 129.822 101.7C129.856 101.762 129.892 101.823 129.929 101.882C129.941 101.9 129.953 101.92 129.965 101.937C129.981 101.961 129.995 101.985 130.013 102.009C130.078 102.1 130.146 102.188 130.221 102.271C130.233 102.285 130.247 102.299 130.261 102.313C130.279 102.333 130.299 102.354 130.317 102.374C130.347 102.406 130.378 102.436 130.408 102.467C130.412 102.471 130.416 102.473 130.42 102.477C130.436 102.491 130.452 102.505 130.468 102.519C130.5 102.546 130.532 102.572 130.563 102.6C130.625 102.651 130.69 102.7 130.756 102.746C130.776 102.76 130.792 102.775 130.812 102.789C130.832 102.803 130.853 102.817 130.875 102.831C130.887 102.839 130.897 102.845 130.909 102.853C130.911 102.853 130.913 102.855 130.915 102.857C130.971 102.892 131.026 102.922 131.084 102.951C131.1 102.961 131.112 102.969 131.13 102.975C131.138 102.979 131.146 102.981 131.152 102.985C131.163 102.991 131.173 102.995 131.185 103.001C131.221 103.019 131.255 103.036 131.293 103.05C131.295 103.05 131.299 103.052 131.301 103.054C131.311 103.058 131.318 103.062 131.328 103.066C131.338 103.07 131.348 103.076 131.36 103.08C131.382 103.09 131.404 103.098 131.426 103.106C131.436 103.11 131.446 103.113 131.456 103.117C131.464 103.119 131.472 103.123 131.479 103.127C131.515 103.139 131.553 103.151 131.589 103.163C131.64 103.179 131.694 103.195 131.746 103.208L205.227 122.324C205.281 122.338 205.335 122.349 205.388 122.361C205.424 122.369 205.464 122.375 205.502 122.383C205.513 122.387 205.523 122.387 205.533 122.389C205.551 122.391 205.571 122.393 205.589 122.395C205.599 122.397 205.609 122.397 205.619 122.401C205.641 122.405 205.661 122.407 205.68 122.409C205.684 122.409 205.686 122.409 205.69 122.409C205.716 122.409 205.744 122.413 205.77 122.415C205.79 122.417 205.812 122.421 205.833 122.421C205.837 122.421 205.841 122.421 205.845 122.421C205.873 122.421 205.903 122.421 205.931 122.423C205.994 122.423 206.058 122.425 206.124 122.423C206.126 122.423 206.128 122.423 206.132 122.423C206.147 122.423 206.161 122.423 206.177 122.421C206.197 122.421 206.217 122.421 206.237 122.417C206.247 122.417 206.261 122.417 206.271 122.417C206.281 122.417 206.289 122.415 206.3 122.415C206.316 122.415 206.332 122.409 206.348 122.407C206.489 122.391 206.628 122.367 206.763 122.334C206.767 122.334 206.771 122.334 206.773 122.334C206.795 122.33 206.817 122.322 206.841 122.316C206.863 122.312 206.883 122.306 206.903 122.298C206.926 122.292 206.952 122.282 206.978 122.274C206.988 122.27 207 122.266 207.012 122.262C207.024 122.259 207.034 122.255 207.046 122.251C207.085 122.237 207.125 122.221 207.163 122.207C207.169 122.203 207.175 122.199 207.181 122.199C207.207 122.189 207.232 122.175 207.258 122.164C207.282 122.154 207.304 122.144 207.328 122.132C207.336 122.128 207.346 122.124 207.354 122.12C207.36 122.116 207.368 122.114 207.374 122.11C207.397 122.098 207.421 122.087 207.443 122.075C207.463 122.067 207.481 122.057 207.499 122.045C207.515 122.035 207.529 122.027 207.545 122.019C207.56 122.009 207.576 122 207.592 121.99C207.624 121.972 207.656 121.952 207.686 121.932C207.717 121.913 207.749 121.891 207.779 121.867C207.797 121.855 207.813 121.843 207.831 121.83C207.878 121.796 207.924 121.76 207.97 121.725C207.988 121.707 208.006 121.693 208.025 121.675C208.037 121.666 208.049 121.654 208.059 121.644C208.087 121.618 208.117 121.592 208.145 121.565C208.165 121.549 208.18 121.531 208.196 121.513C208.214 121.496 208.232 121.48 208.248 121.46C208.266 121.442 208.284 121.42 208.3 121.405C208.349 121.351 208.397 121.292 208.443 121.235C208.443 121.231 208.451 121.225 208.455 121.217C208.469 121.197 208.483 121.177 208.498 121.158C208.514 121.136 208.53 121.112 208.548 121.088C208.552 121.088 208.552 121.084 208.552 121.082C208.566 121.063 208.578 121.043 208.592 121.023C208.604 121.005 208.616 120.988 208.628 120.968C208.634 120.958 208.64 120.95 208.646 120.94C208.649 120.936 208.653 120.93 208.655 120.924C208.669 120.897 208.687 120.869 208.703 120.839C208.713 120.824 208.721 120.808 208.729 120.792C208.735 120.784 208.739 120.774 208.743 120.764C208.749 120.754 208.755 120.744 208.759 120.735C208.759 120.731 208.763 120.727 208.765 120.725C208.765 120.721 208.771 120.713 208.771 120.709C208.787 120.677 208.802 120.644 208.816 120.61C208.83 120.574 208.848 120.541 208.86 120.505C208.866 120.491 208.872 120.478 208.88 120.462C208.882 120.452 208.888 120.444 208.89 120.434C208.898 120.41 208.908 120.387 208.914 120.365C208.922 120.341 208.932 120.318 208.938 120.294C208.954 120.242 208.969 120.191 208.983 120.142L209.017 120.011L209.13 119.58L219.862 78.7721C219.876 78.7227 219.886 78.6693 219.898 78.6179C219.908 78.5823 219.916 78.5428 219.92 78.5052C219.928 78.4618 219.936 78.4163 219.939 78.3728C219.943 78.3353 219.949 78.2977 219.951 78.2602C219.955 78.2226 219.957 78.187 219.959 78.1495C219.961 78.102 219.963 78.0566 219.963 78.0072C219.963 77.9103 219.961 77.8115 219.949 77.7146L219.943 77.7067Z" fill="#3A7EC1"/>
</g>
<path d="M221.643 75.7736L210.764 117.141C210.75 117.191 210.734 117.242 210.718 117.293C210.712 117.317 210.702 117.341 210.695 117.365C210.689 117.386 210.681 117.41 210.671 117.434C210.669 117.444 210.663 117.451 210.661 117.461C210.655 117.477 210.647 117.491 210.641 117.505C210.629 117.54 210.613 117.574 210.597 117.61C210.583 117.641 210.567 117.677 210.551 117.708C210.545 117.724 210.536 117.74 210.526 117.756C210.522 117.768 210.516 117.782 210.508 117.791C210.502 117.807 210.492 117.823 210.482 117.839C210.466 117.869 210.448 117.896 210.434 117.924C210.434 117.928 210.428 117.936 210.424 117.94C210.394 117.987 210.365 118.037 210.333 118.082C210.333 118.084 210.333 118.086 210.329 118.088C210.313 118.112 210.295 118.135 210.279 118.157C210.263 118.179 210.247 118.197 210.235 118.216C210.231 118.222 210.224 118.228 210.224 118.234C210.178 118.292 210.13 118.351 210.08 118.404C210.067 118.42 210.047 118.442 210.029 118.46C210.011 118.477 209.993 118.493 209.977 118.513C209.959 118.529 209.945 118.548 209.925 118.564C209.892 118.598 209.854 118.633 209.816 118.663C209.792 118.685 209.77 118.703 209.749 118.722C209.693 118.764 209.641 118.807 209.586 118.847C209.544 118.877 209.504 118.904 209.462 118.93C209.423 118.958 209.379 118.983 209.337 119.007C209.319 119.021 209.297 119.031 209.276 119.043C209.258 119.053 209.24 119.064 209.22 119.072C209.198 119.084 209.174 119.096 209.15 119.108C209.144 119.112 209.136 119.114 209.13 119.118C209.075 119.147 209.015 119.173 208.958 119.195C208.952 119.195 208.946 119.199 208.94 119.203C208.894 119.219 208.848 119.238 208.801 119.254C208.783 119.26 208.769 119.266 208.755 119.27C208.729 119.278 208.703 119.288 208.679 119.294C208.659 119.302 208.64 119.306 208.618 119.311C208.596 119.319 208.572 119.325 208.55 119.329C208.395 119.371 208.236 119.398 208.075 119.412C208.065 119.412 208.057 119.414 208.045 119.414C208.035 119.414 208.022 119.414 208.012 119.414C207.974 119.418 207.938 119.42 207.898 119.42C207.833 119.424 207.769 119.422 207.706 119.42C207.672 119.42 207.64 119.42 207.606 119.418C207.586 119.418 207.562 119.414 207.543 119.412C207.517 119.412 207.489 119.408 207.463 119.406C207.459 119.406 207.455 119.406 207.453 119.406C207.433 119.404 207.413 119.4 207.392 119.398C207.382 119.396 207.372 119.396 207.362 119.392C207.344 119.391 207.324 119.389 207.306 119.387C207.296 119.385 207.286 119.385 207.274 119.381C207.237 119.373 207.199 119.367 207.161 119.359C207.107 119.347 207.054 119.335 207 119.321L133.519 100.206C133.465 100.192 133.413 100.176 133.362 100.16C133.326 100.149 133.288 100.137 133.252 100.125C133.212 100.111 133.173 100.097 133.133 100.079C133.109 100.072 133.085 100.062 133.065 100.052C133.01 100.03 132.954 100.002 132.902 99.9767C132.887 99.9708 132.873 99.9609 132.857 99.953C132.801 99.9233 132.743 99.8937 132.688 99.8581C132.654 99.8363 132.624 99.8186 132.592 99.7968C132.445 99.7 132.306 99.5893 132.179 99.4707C132.149 99.4391 132.117 99.4094 132.088 99.3778C132.054 99.3422 132.018 99.3066 131.988 99.2691C131.792 99.0457 131.631 98.7986 131.505 98.5318C131.476 98.4705 131.448 98.4073 131.424 98.3421C131.338 98.1246 131.281 97.8993 131.249 97.6661C131.243 97.6127 131.237 97.5554 131.231 97.5C131.225 97.4447 131.225 97.3874 131.221 97.332C131.221 97.2747 131.221 97.2194 131.221 97.164C131.221 97.1107 131.225 97.0593 131.229 97.0079C131.229 97 131.231 96.9901 131.229 96.9822C131.235 96.9328 131.241 96.8794 131.249 96.832C131.249 96.828 131.249 96.8241 131.249 96.8201C131.255 96.7806 131.261 96.743 131.269 96.7055C131.281 96.6284 131.299 96.5552 131.319 96.4782L142.197 55.1106C142.291 54.7568 142.442 54.4327 142.642 54.1461C142.956 53.6934 143.388 53.3357 143.882 53.1084C143.888 53.1044 143.896 53.1024 143.906 53.0985L144.091 53.0214C144.665 52.804 145.311 52.7585 145.951 52.9245L219.433 72.0399C219.504 72.0597 219.574 72.0794 219.641 72.1051C219.653 72.1051 219.667 72.1111 219.679 72.117C219.745 72.1387 219.814 72.1644 219.876 72.1921C219.89 72.198 219.906 72.2059 219.92 72.2119C219.975 72.2356 220.029 72.2633 220.081 72.2929C220.095 72.2988 220.108 72.3048 220.122 72.3146C220.188 72.3502 220.25 72.3858 220.311 72.4253C220.369 72.4609 220.428 72.5024 220.482 72.542C220.56 72.5973 220.633 72.6605 220.705 72.7258C220.744 72.7594 220.784 72.795 220.82 72.8325C220.886 72.8958 220.947 72.963 221.005 73.0341C221.009 73.0341 221.007 73.0341 221.007 73.0341L221.13 73.1922C221.13 73.1922 221.142 73.2061 221.146 73.212C221.178 73.2535 221.205 73.297 221.233 73.3405C221.255 73.3721 221.275 73.4057 221.295 73.4393C221.357 73.5401 221.41 73.6429 221.46 73.7536C221.484 73.803 221.504 73.8524 221.521 73.8999C221.603 74.1034 221.659 74.3149 221.692 74.5324C221.702 74.5916 221.71 74.6529 221.716 74.7122C221.716 74.7142 221.716 74.7181 221.716 74.7201C221.726 74.817 221.73 74.9158 221.73 75.0127C221.73 75.0621 221.73 75.1075 221.726 75.155C221.724 75.1925 221.722 75.2281 221.718 75.2657C221.716 75.3032 221.712 75.3408 221.706 75.3783C221.702 75.4238 221.696 75.4673 221.686 75.5108C221.682 75.5483 221.675 75.5878 221.665 75.6234C221.655 75.6748 221.643 75.7282 221.629 75.7776L221.643 75.7736Z" fill="#DFE5EA"/>
<path d="M221.73 74.7162L142.652 54.1441C142.966 53.6915 143.398 53.3337 143.892 53.1064C143.898 53.1024 143.906 53.1005 143.916 53.0965L144.101 53.0194L188.011 34.8904C189.303 34.3567 190.793 34.7441 191.656 35.8391L221.015 73.0282H221.017L221.14 73.1863C221.14 73.1863 221.152 73.2002 221.156 73.2061C221.188 73.2476 221.215 73.2911 221.243 73.3346C221.265 73.3662 221.285 73.3998 221.305 73.4334C221.366 73.5342 221.42 73.637 221.47 73.7477C221.494 73.7971 221.514 73.8465 221.531 73.8939C221.613 74.0975 221.669 74.309 221.702 74.5264C221.712 74.5857 221.72 74.647 221.726 74.7063C221.726 74.7083 221.726 74.7122 221.726 74.7142L221.73 74.7162Z" fill="#79E9D7"/>
<path d="M204.848 116.463L135.84 98.512L153.048 33.0798C153.358 31.8978 154.574 31.1902 155.763 31.4986L220.466 48.331C221.655 48.6393 222.366 49.849 222.056 51.031L204.848 116.463Z" fill="#E4ECF9"/>
<path d="M210.42 61.6906L157.945 48.0385C157.72 47.9812 157.585 47.7499 157.645 47.5285L158.251 45.2219C158.308 44.9985 158.541 44.8641 158.764 44.9234L211.239 58.5755C211.464 58.6329 211.599 58.8641 211.539 59.0855L210.933 61.3922C210.875 61.6155 210.643 61.7499 210.42 61.6906Z" fill="#E4ECF9"/>
<path d="M209.486 65.2359L157.011 51.583C156.786 51.5244 156.556 51.6584 156.497 51.8823L155.891 54.1865C155.832 54.4104 155.967 54.6394 156.192 54.698L208.666 68.3509C208.891 68.4094 209.122 68.2754 209.18 68.0515L209.786 65.7473C209.845 65.5234 209.711 65.2944 209.486 65.2359Z" fill="#E4ECF9"/>
<path d="M206.919 75.0028L154.443 61.3506C154.219 61.2933 154.083 61.0621 154.143 60.8407L154.749 58.534C154.807 58.3107 155.039 58.1763 155.262 58.2356L207.737 71.8877C207.962 71.945 208.097 72.1763 208.037 72.3977L207.431 74.7043C207.374 74.9277 207.141 75.0621 206.919 75.0028Z" fill="#E4ECF9"/>
<path d="M205.17 81.6579L152.694 68.0057C152.47 67.9484 152.335 67.7172 152.394 67.4958L153 65.1891C153.058 64.9658 153.291 64.8314 153.513 64.8907L205.989 78.5428C206.213 78.6001 206.348 78.8314 206.289 79.0528L205.682 81.3594C205.625 81.5828 205.392 81.7172 205.17 81.6579Z" fill="#E4ECF9"/>
<path d="M203.419 88.313L150.944 74.6608C150.719 74.6035 150.584 74.3722 150.643 74.1509L151.25 71.8442C151.307 71.6209 151.54 71.4865 151.762 71.5458L204.238 85.1979C204.462 85.2552 204.597 85.4865 204.538 85.7078L203.932 88.0145C203.874 88.2379 203.642 88.3723 203.419 88.313Z" fill="#E4ECF9"/>
<path d="M176.194 87.2338C176.045 87.3306 175.879 87.4097 175.698 87.465L133.691 100.251L133.529 100.208C133.226 100.129 132.95 100.012 132.7 99.8561C132.664 99.8344 132.628 99.8126 132.596 99.7909C132.165 99.5043 131.817 99.1149 131.583 98.6642C131.561 98.6227 131.539 98.5792 131.517 98.5318C131.454 98.3994 131.404 98.261 131.36 98.1207C131.344 98.0732 131.335 98.0258 131.321 97.9803C131.311 97.9309 131.297 97.8815 131.289 97.8341C131.203 97.3973 131.211 96.9347 131.333 96.4762L142.211 55.1086C142.305 54.7548 142.456 54.4307 142.656 54.1441C142.97 53.6914 143.402 53.3337 143.896 53.1064C143.902 53.1024 143.91 53.1004 143.92 53.0965L144.105 53.0194C144.679 52.802 145.325 52.7565 145.965 52.9226L146.645 53.0985L149.308 55.8736L173.859 81.4563L174.784 82.4188L176.546 84.2551C176.677 84.3915 176.785 84.5417 176.868 84.6978C177.333 85.5814 177.041 86.6961 176.2 87.2357L176.194 87.2338Z" fill="#F4B545"/>
<path d="M221.643 75.7736L210.764 117.141C210.75 117.191 210.734 117.242 210.718 117.293C210.712 117.317 210.702 117.341 210.694 117.365C210.688 117.386 210.681 117.41 210.671 117.434C210.669 117.444 210.663 117.452 210.661 117.461C210.655 117.477 210.647 117.491 210.641 117.505C210.629 117.54 210.613 117.574 210.597 117.61C210.583 117.641 210.567 117.677 210.551 117.708C210.551 117.712 210.545 117.72 210.545 117.724C210.541 117.734 210.535 117.744 210.528 117.756C210.524 117.768 210.518 117.782 210.51 117.791C210.504 117.807 210.494 117.823 210.484 117.839C210.468 117.869 210.454 117.894 210.436 117.924C210.436 117.928 210.43 117.936 210.426 117.94C210.398 117.989 210.367 118.037 210.335 118.082C210.335 118.084 210.335 118.086 210.331 118.088C210.315 118.112 210.301 118.133 210.281 118.157C210.269 118.177 210.253 118.197 210.237 118.216C210.233 118.22 210.229 118.226 210.225 118.234C210.18 118.292 210.132 118.351 210.082 118.404C210.068 118.42 210.049 118.442 210.031 118.46C210.013 118.477 209.995 118.493 209.979 118.513C209.961 118.529 209.947 118.548 209.927 118.564C209.894 118.598 209.856 118.633 209.818 118.663C209.794 118.685 209.772 118.703 209.75 118.722C209.695 118.766 209.641 118.807 209.587 118.847C209.546 118.877 209.506 118.904 209.464 118.93C209.425 118.958 209.381 118.983 209.339 119.007C209.321 119.021 209.299 119.031 209.277 119.043C209.26 119.053 209.242 119.064 209.222 119.072C209.2 119.084 209.176 119.096 209.152 119.108C209.146 119.112 209.138 119.114 209.132 119.118C209.077 119.147 209.017 119.173 208.959 119.195C208.954 119.195 208.948 119.199 208.942 119.203C208.896 119.219 208.85 119.238 208.802 119.254C208.785 119.26 208.771 119.266 208.757 119.27C208.731 119.278 208.705 119.288 208.681 119.294C208.661 119.302 208.642 119.306 208.62 119.311C208.598 119.319 208.574 119.325 208.552 119.329C208.397 119.371 208.238 119.398 208.077 119.412C208.067 119.412 208.055 119.414 208.047 119.414C208.037 119.414 208.023 119.414 208.014 119.414C207.976 119.418 207.94 119.42 207.9 119.42C207.835 119.424 207.771 119.422 207.707 119.42C207.674 119.42 207.642 119.42 207.608 119.418C207.588 119.418 207.564 119.414 207.545 119.412C207.519 119.412 207.491 119.408 207.465 119.406H207.457C207.435 119.4 207.411 119.4 207.392 119.398C207.382 119.396 207.372 119.396 207.362 119.392C207.344 119.391 207.326 119.389 207.306 119.387C207.296 119.385 207.286 119.385 207.274 119.381C207.236 119.373 207.199 119.367 207.161 119.359C207.107 119.347 207.054 119.335 207 119.321L206.837 119.278L176.504 87.6726C176.373 87.5362 176.266 87.386 176.184 87.2318C175.715 86.3463 176.008 85.2374 176.852 84.6939C176.997 84.597 177.166 84.518 177.347 84.4626L179.785 83.7194L181.065 83.3301L215.069 72.9808L218.757 71.8581L219.437 72.034C219.508 72.0537 219.578 72.0735 219.645 72.0992C219.657 72.0992 219.671 72.1051 219.683 72.1111C219.749 72.1328 219.818 72.1585 219.88 72.1862C219.894 72.1921 219.91 72.2 219.924 72.2059C219.979 72.2297 220.033 72.2573 220.085 72.287C220.098 72.2929 220.112 72.2988 220.126 72.3087C220.192 72.3443 220.253 72.3799 220.315 72.4194C220.373 72.455 220.432 72.4965 220.486 72.536C220.564 72.5914 220.637 72.6546 220.709 72.7198C220.748 72.7535 220.788 72.789 220.824 72.8266C220.889 72.8898 220.951 72.957 221.009 73.0282C221.013 73.0282 221.011 73.0282 221.011 73.0282L221.134 73.1863C221.134 73.1863 221.146 73.2002 221.15 73.2061C221.182 73.2476 221.209 73.2911 221.237 73.3346C221.259 73.3662 221.279 73.3998 221.299 73.4334C221.36 73.5342 221.414 73.637 221.464 73.7477C221.488 73.7971 221.508 73.8465 221.525 73.8939C221.607 74.0975 221.663 74.309 221.696 74.5264C221.706 74.5857 221.714 74.647 221.72 74.7063C221.72 74.7083 221.72 74.7122 221.72 74.7142C221.73 74.8111 221.734 74.9099 221.734 75.0067C221.734 75.0562 221.734 75.1016 221.73 75.149C221.728 75.1866 221.726 75.2222 221.722 75.2597C221.72 75.2973 221.716 75.3348 221.71 75.3724C221.706 75.4179 221.7 75.4613 221.69 75.5048C221.686 75.5424 221.678 75.5819 221.668 75.6175C221.659 75.6689 221.647 75.7223 221.633 75.7717L221.643 75.7736Z" fill="#6FE1B8"/>
<path opacity="0.29" d="M210.909 116.58L210.796 117.011C210.347 118.717 208.652 119.754 207.008 119.325L133.526 100.21C131.883 99.783 130.915 98.0535 131.362 96.3457L131.476 95.9149L175.775 81.0155C177.15 80.553 178.645 80.9424 179.617 82.0156L210.911 116.58H210.909Z" fill="#474747"/>
<path d="M210.871 116.728L210.762 117.141C210.333 118.776 208.651 119.754 207.008 119.327L133.526 100.212C131.883 99.7849 130.899 98.1128 131.328 96.4781L131.438 96.065L175.465 82.2034C176.832 81.7725 178.327 82.1619 179.307 83.2035L210.873 116.73L210.871 116.728Z" fill="#79E9D7"/>
<path d="M184.393 44.4875L160.512 38.2741C160.286 38.2155 160.056 38.3496 159.997 38.5734L159.391 40.8777C159.332 41.1016 159.467 41.3305 159.692 41.3891L183.573 47.6025C183.798 47.6611 184.029 47.5271 184.088 47.3032L184.694 44.999C184.752 44.7751 184.618 44.5461 184.393 44.4875Z" fill="#52D1BD"/>
<g style="mix-blend-mode:multiply" opacity="0.2">
<path d="M182.027 95.0017C182.027 95.0017 182.027 94.9938 182.027 94.9898C182.027 94.9839 182.027 94.976 182.027 94.972C182.027 94.9345 182.027 94.8949 182.025 94.8594C182.021 94.8198 182.021 94.7803 182.015 94.7427C182.015 94.7269 182.015 94.7111 182.013 94.6933C182.011 94.6834 182.013 94.6736 182.009 94.6617C182.007 94.636 182.003 94.6103 182 94.5866C181.998 94.5609 181.994 94.5352 181.988 94.5095C181.978 94.4542 181.97 94.3988 181.958 94.3474L181.864 93.9126V93.9007L181.831 93.7564L172.669 50.7068C172.657 50.6535 172.643 50.5981 172.629 50.5467C172.621 50.5092 172.609 50.4696 172.597 50.4321C172.586 50.3866 172.57 50.3431 172.554 50.2997C172.54 50.2621 172.528 50.2265 172.512 50.189C172.498 50.1514 172.484 50.1178 172.468 50.0822C172.448 50.0368 172.429 49.9933 172.405 49.9478C172.359 49.8569 172.311 49.768 172.256 49.681C172.256 49.679 172.252 49.677 172.252 49.6731C172.216 49.6197 172.18 49.5663 172.144 49.5169C172.011 49.3292 171.858 49.1572 171.687 49.005C171.647 48.9694 171.606 48.9319 171.56 48.8963C171.463 48.8153 171.363 48.7441 171.258 48.6789C171.224 48.6571 171.19 48.6354 171.155 48.6156C171.109 48.5879 171.063 48.5603 171.014 48.5366C171.008 48.5326 171 48.5287 170.99 48.5247L170.801 48.4358C170.801 48.4358 170.801 48.4338 170.799 48.4358L165.358 45.884L162.14 30.7653C161.482 27.6779 158.434 25.7052 155.332 26.3595L133.525 30.9511L125.943 27.3932C124.623 26.7726 123.051 27.1047 122.097 28.2036L116.614 34.5108L93.772 39.3198C90.6678 39.9741 88.6844 43.0061 89.3422 46.0915L92.7267 61.991L89.6582 65.5212L89.5211 65.6793C89.5211 65.6793 89.5072 65.6932 89.5032 65.6991C89.1475 66.1418 88.913 66.6735 88.8335 67.2428C88.7818 67.6025 88.7937 67.9741 88.8732 68.3497L98.0785 111.605L98.1322 111.854L98.162 111.99C98.1799 112.071 98.1978 112.148 98.2236 112.225C98.2296 112.243 98.2335 112.261 98.2395 112.279C98.2435 112.293 98.2475 112.306 98.2514 112.318C98.2534 112.326 98.2554 112.334 98.2574 112.342C98.2594 112.35 98.2634 112.356 98.2653 112.364C98.2812 112.409 98.2971 112.457 98.315 112.502C98.319 112.51 98.321 112.52 98.325 112.526C98.3329 112.544 98.3409 112.561 98.3488 112.579C98.3568 112.597 98.3647 112.615 98.3727 112.633C98.3766 112.643 98.3806 112.652 98.3866 112.662C98.3905 112.67 98.3945 112.68 98.3985 112.688C98.4223 112.737 98.4462 112.785 98.47 112.834C98.476 112.844 98.482 112.854 98.4859 112.864C98.4979 112.884 98.5098 112.903 98.5197 112.923C98.5316 112.945 98.5436 112.967 98.5575 112.988C98.5893 113.038 98.6211 113.089 98.6529 113.135C98.6529 113.135 98.6549 113.139 98.6568 113.141C98.6787 113.172 98.7045 113.204 98.7284 113.235C98.7383 113.249 98.7483 113.265 98.7582 113.279C98.788 113.32 98.8238 113.36 98.8556 113.402C98.8615 113.407 98.8655 113.413 98.8715 113.419C98.8794 113.427 98.8874 113.437 98.8953 113.445C98.9172 113.469 98.9371 113.492 98.9589 113.514C98.9689 113.524 98.9788 113.532 98.9887 113.542C99.0285 113.583 99.0682 113.623 99.11 113.662C99.1179 113.67 99.1259 113.68 99.1358 113.688C99.1775 113.728 99.2212 113.763 99.265 113.797C99.2868 113.815 99.3087 113.832 99.3306 113.848C99.3623 113.874 99.3941 113.898 99.4259 113.919C99.4379 113.929 99.4538 113.935 99.4657 113.945C99.5273 113.987 99.5889 114.028 99.6525 114.066C99.6724 114.078 99.6922 114.089 99.7121 114.101C99.738 114.115 99.7638 114.131 99.7896 114.145C99.893 114.2 99.9983 114.249 100.108 114.293C100.125 114.301 100.145 114.307 100.163 114.313C100.191 114.323 100.217 114.334 100.245 114.342C100.288 114.358 100.33 114.372 100.374 114.386C100.404 114.394 100.434 114.4 100.461 114.408C100.495 114.417 100.527 114.423 100.561 114.431C100.593 114.439 100.624 114.447 100.658 114.453C100.71 114.463 100.763 114.471 100.817 114.479C100.825 114.479 100.835 114.481 100.845 114.483C100.865 114.485 100.885 114.491 100.905 114.495C100.93 114.497 100.956 114.5 100.984 114.502C100.998 114.502 101.012 114.504 101.026 114.506C101.028 114.506 101.03 114.506 101.034 114.506C101.101 114.512 101.169 114.514 101.234 114.516C101.252 114.516 101.27 114.52 101.288 114.518C101.296 114.518 101.306 114.518 101.314 114.518C101.326 114.518 101.34 114.518 101.352 114.518C101.393 114.518 101.433 114.518 101.475 114.514C101.477 114.514 101.481 114.514 101.485 114.514C101.495 114.514 101.507 114.514 101.517 114.512C101.529 114.512 101.54 114.512 101.552 114.51C101.578 114.51 101.602 114.506 101.626 114.504C101.638 114.504 101.648 114.504 101.66 114.5C101.668 114.5 101.678 114.5 101.686 114.499C101.723 114.493 101.765 114.487 101.805 114.481C101.86 114.471 101.918 114.463 101.974 114.451L179.321 98.1661L179.493 98.1306C179.549 98.1187 179.605 98.1049 179.66 98.091C179.698 98.0812 179.738 98.0693 179.776 98.0594C179.788 98.0574 179.798 98.0515 179.807 98.0495C179.825 98.0436 179.845 98.0357 179.861 98.0298C179.871 98.0278 179.881 98.0238 179.891 98.0199C179.913 98.012 179.933 98.006 179.953 97.9981C179.953 97.9962 179.957 97.9942 179.962 97.9942C179.986 97.9843 180.014 97.9724 180.038 97.9626C180.058 97.9566 180.08 97.9487 180.1 97.9388C180.104 97.9388 180.108 97.9349 180.112 97.9329C180.112 97.9329 180.112 97.9329 180.114 97.9329C180.141 97.9211 180.167 97.9072 180.195 97.8954C180.255 97.8677 180.316 97.838 180.376 97.8044C180.378 97.8044 180.38 97.8025 180.382 97.8005C180.396 97.7926 180.41 97.7847 180.424 97.7768C180.441 97.7669 180.459 97.757 180.477 97.7451C180.487 97.7412 180.499 97.7333 180.509 97.7273C180.519 97.7234 180.525 97.7155 180.535 97.7115C180.549 97.7017 180.561 97.6898 180.575 97.6819C180.7 97.6009 180.817 97.5159 180.928 97.419C180.93 97.417 180.934 97.4151 180.938 97.4131C180.956 97.3992 180.974 97.3815 180.992 97.3656C181.01 97.3518 181.026 97.338 181.042 97.3202C181.061 97.3024 181.081 97.2826 181.101 97.2629C181.109 97.255 181.117 97.2451 181.127 97.2372C181.135 97.2273 181.145 97.2194 181.153 97.2095C181.183 97.1779 181.213 97.1462 181.242 97.1146C181.246 97.1087 181.25 97.1028 181.254 97.0988C181.274 97.0771 181.292 97.0533 181.31 97.0296C181.326 97.0099 181.344 96.9881 181.36 96.9683C181.366 96.9604 181.372 96.9525 181.377 96.9466C181.381 96.9407 181.387 96.9347 181.391 96.9268C181.407 96.9051 181.425 96.8834 181.439 96.8616C181.455 96.8458 181.467 96.826 181.479 96.8082C181.489 96.7924 181.499 96.7786 181.509 96.7628C181.521 96.747 181.53 96.7292 181.54 96.7114C181.56 96.6798 181.582 96.6481 181.6 96.6145C181.62 96.5829 181.638 96.5473 181.658 96.5118C181.668 96.492 181.68 96.4722 181.689 96.4505C181.717 96.3971 181.743 96.3418 181.769 96.2884C181.777 96.2647 181.787 96.241 181.799 96.2173C181.805 96.2014 181.811 96.1876 181.817 96.1718C181.831 96.1342 181.846 96.0967 181.858 96.0591C181.87 96.0354 181.874 96.0117 181.882 95.988C181.89 95.9623 181.898 95.9405 181.906 95.9148C181.914 95.8891 181.922 95.8615 181.928 95.8397C181.95 95.7666 181.966 95.6895 181.982 95.6144C181.982 95.6085 181.984 95.6006 181.986 95.5927C181.988 95.5689 181.994 95.5432 181.998 95.5156C182.001 95.4879 182.007 95.4583 182.011 95.4286C182.011 95.4247 182.011 95.4227 182.011 95.4207C182.015 95.397 182.017 95.3713 182.019 95.3476C182.021 95.3239 182.025 95.3021 182.027 95.2784C182.027 95.2665 182.029 95.2566 182.031 95.2448C182.031 95.2389 182.033 95.2309 182.031 95.227C182.031 95.1954 182.035 95.1598 182.035 95.1262C182.035 95.1084 182.037 95.0886 182.035 95.0708C182.035 95.061 182.035 95.0491 182.035 95.0392C182.035 95.0274 182.035 95.0155 182.035 95.0036L182.027 95.0017Z" fill="#3A7EC1"/>
</g>
<path d="M175.115 46.9474L184.404 90.588C184.416 90.6414 184.424 90.6947 184.434 90.7501C184.44 90.7758 184.442 90.8015 184.446 90.8272C184.45 90.8509 184.454 90.8766 184.456 90.9023C184.458 90.9121 184.456 90.922 184.46 90.9339C184.46 90.9517 184.46 90.9675 184.462 90.9833C184.468 91.0209 184.468 91.0604 184.472 91.0999C184.474 91.1355 184.474 91.175 184.474 91.2126C184.474 91.2304 184.474 91.2501 184.474 91.2679C184.476 91.2798 184.478 91.2956 184.474 91.3094C184.474 91.3272 184.474 91.347 184.474 91.3648C184.474 91.3984 184.47 91.434 184.47 91.4656C184.47 91.4715 184.47 91.4794 184.47 91.4834C184.464 91.5427 184.46 91.602 184.452 91.6593C184.452 91.6613 184.452 91.6652 184.452 91.6672C184.448 91.6968 184.444 91.7265 184.438 91.7542C184.434 91.7818 184.428 91.8056 184.426 91.8313C184.426 91.8392 184.422 91.8471 184.422 91.853C184.406 91.9281 184.39 92.0052 184.368 92.0783C184.362 92.1001 184.354 92.1277 184.346 92.1534C184.339 92.1791 184.331 92.2009 184.323 92.2266C184.315 92.2503 184.309 92.274 184.299 92.2977C184.283 92.3452 184.263 92.3946 184.245 92.442C184.233 92.4736 184.221 92.4993 184.211 92.529C184.18 92.5942 184.152 92.6575 184.116 92.7207C184.092 92.7681 184.066 92.8136 184.04 92.8551C184.015 92.9006 183.987 92.9421 183.959 92.9856C183.947 93.0073 183.933 93.0251 183.919 93.0468C183.907 93.0646 183.895 93.0844 183.879 93.1002C183.866 93.1219 183.85 93.1437 183.832 93.1654C183.828 93.1714 183.822 93.1773 183.818 93.1852C183.778 93.2386 183.736 93.29 183.695 93.3374C183.691 93.3413 183.687 93.3473 183.683 93.3532C183.647 93.3888 183.613 93.4283 183.577 93.4659C183.563 93.4797 183.554 93.4916 183.542 93.5014C183.522 93.5212 183.502 93.541 183.482 93.5588C183.466 93.5746 183.452 93.5884 183.432 93.6042C183.414 93.622 183.397 93.6378 183.379 93.6517C183.253 93.7624 183.118 93.8632 182.975 93.9501C182.965 93.9541 182.959 93.962 182.949 93.9659C182.939 93.9699 182.928 93.9778 182.918 93.9837C182.884 94.0035 182.852 94.0233 182.816 94.043C182.757 94.0766 182.697 94.1043 182.635 94.1339C182.604 94.1478 182.572 94.1636 182.542 94.1774C182.522 94.1873 182.5 94.1932 182.48 94.2012C182.457 94.211 182.429 94.2229 182.405 94.2328C182.399 94.2328 182.397 94.2328 182.395 94.2367C182.375 94.2427 182.355 94.2506 182.333 94.2585C182.323 94.2604 182.313 94.2644 182.304 94.2684C182.286 94.2743 182.266 94.2822 182.25 94.2881C182.24 94.2901 182.23 94.294 182.218 94.298C182.18 94.3079 182.141 94.3197 182.103 94.3296C182.047 94.3435 181.992 94.3573 181.936 94.3692L104.416 110.69C104.36 110.702 104.303 110.711 104.247 110.719C104.209 110.725 104.168 110.731 104.128 110.737C104.084 110.743 104.04 110.747 103.995 110.749C103.969 110.751 103.943 110.755 103.919 110.755C103.858 110.761 103.792 110.761 103.732 110.761C103.715 110.761 103.699 110.761 103.679 110.761C103.611 110.761 103.546 110.757 103.478 110.751C103.436 110.747 103.399 110.743 103.361 110.739C103.178 110.717 102.997 110.678 102.822 110.628C102.779 110.615 102.737 110.599 102.693 110.585C102.645 110.569 102.596 110.549 102.548 110.532C102.26 110.415 101.994 110.261 101.751 110.069C101.693 110.026 101.64 109.978 101.586 109.929C101.405 109.767 101.244 109.583 101.105 109.379C101.073 109.334 101.042 109.282 101.01 109.233C100.978 109.184 100.95 109.132 100.922 109.081C100.895 109.027 100.869 108.976 100.843 108.923C100.819 108.871 100.797 108.824 100.777 108.772C100.773 108.764 100.771 108.755 100.767 108.749C100.749 108.699 100.73 108.648 100.714 108.598C100.71 108.596 100.71 108.591 100.708 108.587C100.694 108.547 100.684 108.51 100.672 108.47C100.648 108.393 100.628 108.316 100.61 108.235L91.3216 64.5942C91.2421 64.2206 91.2322 63.847 91.2818 63.4873C91.3633 62.9181 91.5978 62.3864 91.9516 61.9436C91.9555 61.9377 91.9615 61.9317 91.9694 61.9238L92.1066 61.7657C92.5398 61.2973 93.1201 60.9533 93.7978 60.811L171.318 44.4905C171.393 44.4747 171.469 44.4609 171.544 44.453C171.556 44.447 171.572 44.447 171.586 44.447C171.657 44.4372 171.733 44.4293 171.804 44.4253C171.82 44.4253 171.838 44.4253 171.854 44.4233C171.918 44.4214 171.981 44.4214 172.043 44.4233C172.059 44.4233 172.075 44.4233 172.091 44.4233C172.168 44.4253 172.244 44.4312 172.319 44.4391C172.389 44.4451 172.464 44.4569 172.532 44.4688C172.631 44.4846 172.729 44.5083 172.826 44.536C172.88 44.5479 172.933 44.5637 172.985 44.5815C173.076 44.6091 173.166 44.6447 173.251 44.6842C173.253 44.6803 173.253 44.6842 173.253 44.6842L173.442 44.7732C173.442 44.7732 173.46 44.7791 173.466 44.785C173.516 44.8088 173.561 44.8364 173.607 44.8641C173.643 44.8839 173.677 44.9056 173.71 44.9274C173.814 44.9926 173.915 45.0637 174.01 45.1448C174.056 45.1804 174.098 45.2159 174.138 45.2535C174.308 45.4057 174.462 45.5757 174.595 45.7654C174.632 45.8148 174.666 45.8682 174.702 45.9216C174.702 45.9235 174.706 45.9255 174.706 45.9295C174.762 46.0164 174.809 46.1054 174.855 46.1963C174.879 46.2418 174.899 46.2853 174.919 46.3307C174.935 46.3663 174.95 46.3999 174.962 46.4374C174.978 46.473 174.992 46.5106 175.004 46.5481C175.022 46.5916 175.036 46.6371 175.048 46.6806C175.062 46.7181 175.072 46.7577 175.08 46.7952C175.093 46.8486 175.107 46.9019 175.119 46.9553L175.115 46.9474Z" fill="#DFE5EA"/>
<path d="M174.7 45.9196L91.2778 63.4834C91.3593 62.9141 91.5938 62.3824 91.9476 61.9397C91.9515 61.9337 91.9575 61.9278 91.9654 61.9199L92.1026 61.7618L124.542 24.4462C125.496 23.3472 127.068 23.0152 128.387 23.6358L173.245 44.6783H173.247L173.436 44.7673C173.436 44.7673 173.454 44.7732 173.46 44.7791C173.51 44.8028 173.555 44.8305 173.601 44.8582C173.637 44.8779 173.671 44.8997 173.704 44.9214C173.808 44.9867 173.909 45.0578 174.004 45.1388C174.05 45.1744 174.092 45.21 174.132 45.2476C174.302 45.3998 174.456 45.5697 174.589 45.7595C174.626 45.8089 174.66 45.8623 174.696 45.9156C174.696 45.9176 174.7 45.9196 174.7 45.9235V45.9196Z" fill="#546EDB"/>
<path d="M178.567 92.7049L105.767 108.031L91.0771 39.0036C90.8108 37.7564 91.6137 36.5309 92.8677 36.268L161.127 21.8984C162.381 21.6335 163.613 22.4321 163.877 23.6793L178.567 92.7069V92.7049Z" fill="#E4ECF9"/>
<path d="M157.291 35.7529L101.932 47.4059C101.695 47.4558 101.543 47.6877 101.593 47.9237L102.111 50.3563C102.161 50.5923 102.394 50.7432 102.632 50.6932L157.991 39.0403C158.228 38.9903 158.38 38.7585 158.329 38.5225L157.812 36.0898C157.761 35.8538 157.528 35.703 157.291 35.7529Z" fill="#E4ECF9"/>
<path d="M159.495 46.056L104.136 57.7118C103.899 57.7612 103.665 57.611 103.615 57.3758L103.097 54.9426C103.047 54.7074 103.198 54.4742 103.434 54.4248L158.794 42.769C159.03 42.7195 159.265 42.8698 159.314 43.105L159.833 45.5381C159.883 45.7733 159.732 46.0066 159.495 46.056Z" fill="#E4ECF9"/>
<path d="M160.296 49.7945L104.937 61.4474C104.699 61.4974 104.548 61.7292 104.598 61.9652L105.116 64.3979C105.166 64.6339 105.399 64.7847 105.636 64.7348L160.995 53.0818C161.233 53.0318 161.384 52.8 161.334 52.564L160.816 50.1314C160.766 49.8953 160.533 49.7445 160.296 49.7945Z" fill="#E4ECF9"/>
<path d="M161.8 56.8119L106.441 68.4648C106.204 68.5148 106.052 68.7466 106.102 68.9826L106.62 71.4153C106.67 71.6513 106.903 71.8021 107.14 71.7522L162.499 60.0992C162.737 60.0492 162.888 59.8174 162.838 59.5814L162.32 57.1488C162.27 56.9127 162.037 56.7619 161.8 56.8119Z" fill="#E4ECF9"/>
<path d="M163.302 63.8317L107.943 75.4846C107.706 75.5346 107.554 75.7664 107.604 76.0024L108.122 78.4351C108.172 78.6711 108.405 78.8219 108.643 78.772L164.002 67.119C164.239 67.069 164.391 66.8372 164.34 66.6012L163.823 64.1686C163.772 63.9325 163.539 63.7817 163.302 63.8317Z" fill="#E4ECF9"/>
<path d="M133.994 45.0084L134.011 43.4153L137.646 42.6444L137.658 52.9087C137.662 53.557 137.686 53.982 137.73 54.1836C137.775 54.3931 137.863 54.5473 137.994 54.6422C138.125 54.739 138.264 54.7707 138.411 54.741C138.908 54.6362 139.479 54.1777 140.126 53.3673C140.774 52.5569 141.269 51.535 141.615 50.3016C141.961 49.0683 141.993 47.7953 141.71 46.479C141.476 45.3839 141.045 44.3957 140.421 43.5161C139.795 42.6365 139.012 41.925 138.07 41.3794C137.128 40.8339 136.033 40.484 134.784 40.3279C133.536 40.1717 132.179 40.2508 130.71 40.5611C129.214 40.8793 127.882 41.3636 126.718 42.0159C125.553 42.6681 124.574 43.4588 123.785 44.3858C122.994 45.3128 122.397 46.3762 121.992 47.5799C121.632 48.6295 121.426 49.7521 121.374 50.946C121.322 52.1398 121.424 53.3278 121.676 54.5038C122.012 56.0752 122.634 57.4449 123.542 58.6111C124.45 59.7793 125.597 60.6766 126.984 61.3032C128.371 61.9298 129.953 62.248 131.732 62.2579C133.511 62.2678 135.444 61.9357 137.537 61.2637C139.192 60.7023 140.55 60.0145 141.607 59.1982C142.664 58.3818 143.493 57.3758 144.091 56.1799L147.024 55.5573C146.756 56.6345 146.321 57.6386 145.719 58.5696C145.117 59.4986 144.357 60.3347 143.441 61.0779C142.525 61.8211 141.458 62.4654 140.242 63.009C139.023 63.5525 137.662 63.9854 136.156 64.3036C133.898 64.7819 131.801 64.9183 129.866 64.7128C127.93 64.5072 126.227 63.9814 124.754 63.1335C123.282 62.2856 122.064 61.1589 121.102 59.7555C120.138 58.3522 119.456 56.7176 119.059 54.8556C118.641 52.9107 118.578 51.0251 118.868 49.1967C119.158 47.3704 119.782 45.7022 120.74 44.196C121.698 42.6899 122.986 41.3972 124.603 40.32C126.221 39.2428 128.093 38.4778 130.224 38.0272C131.968 37.6575 133.622 37.5726 135.186 37.7702C136.75 37.9679 138.151 38.4324 139.393 39.1617C140.635 39.8911 141.667 40.8497 142.493 42.0356C143.318 43.2216 143.9 44.5992 144.236 46.1706C144.499 47.3941 144.534 48.6393 144.346 49.9063C144.157 51.1733 143.751 52.3612 143.129 53.472C142.509 54.5829 141.7 55.5277 140.707 56.3045C139.713 57.0832 138.572 57.609 137.287 57.8818C136.543 58.0399 135.937 58.0359 135.47 57.8719C135.003 57.7078 134.641 57.3679 134.387 56.848C133.757 57.8027 132.944 58.4925 131.951 58.9175C130.957 59.3424 129.931 59.461 128.872 59.2693C127.815 59.0776 126.883 58.5755 126.08 57.7632C125.277 56.9508 124.727 55.8538 124.432 54.4761C124.124 53.0431 124.132 51.5666 124.454 50.0467C124.776 48.5267 125.414 47.2044 126.368 46.0757C127.322 44.9471 128.518 44.2316 129.959 43.9252C131.613 43.5754 132.956 43.9351 133.992 45.0044L133.994 45.0084ZM127.98 53.7013C128.214 54.7963 128.624 55.5889 129.208 56.0752C129.792 56.5614 130.456 56.7275 131.201 56.5693C132.064 56.3855 132.751 55.8835 133.26 55.0592C133.769 54.235 134.083 53.2645 134.198 52.1477C134.313 51.031 134.268 49.9834 134.057 49.005C133.954 48.5207 133.803 48.0978 133.604 47.7341C133.405 47.3704 133.163 47.066 132.877 46.8209C132.588 46.5778 132.27 46.4137 131.923 46.3287C131.573 46.2457 131.197 46.2457 130.794 46.3327C129.985 46.5047 129.325 46.9711 128.813 47.7341C128.3 48.497 127.976 49.4142 127.841 50.4894C127.706 51.5627 127.753 52.634 127.982 53.7033L127.98 53.7013Z" fill="#546EDB"/>
<path d="M138.111 78.7582C138.018 78.9183 137.899 79.0705 137.754 79.2049L104.581 110.654L104.408 110.69C104.09 110.757 103.776 110.775 103.47 110.747C103.426 110.743 103.383 110.739 103.343 110.735C102.806 110.668 102.298 110.466 101.868 110.156C101.829 110.128 101.787 110.097 101.745 110.063C101.624 109.97 101.511 109.863 101.405 109.751C101.368 109.713 101.336 109.676 101.302 109.638C101.27 109.597 101.234 109.557 101.205 109.516C100.918 109.148 100.71 108.713 100.606 108.229L91.3177 64.5882C91.2382 64.2147 91.2282 63.8411 91.2779 63.4814C91.3594 62.9121 91.5939 62.3804 91.9477 61.9377C91.9516 61.9317 91.9576 61.9258 91.9655 61.9179L92.1027 61.7598C92.5359 61.2913 93.1162 60.9474 93.7939 60.8051L94.5113 60.6549L98.2992 62.0049L133.217 74.4553L134.53 74.9237L137.036 75.8171C137.223 75.8843 137.394 75.9752 137.543 76.08C138.392 76.6888 138.642 77.8648 138.111 78.7582Z" fill="#546EDB"/>
<path d="M175.115 46.9474L184.404 90.588C184.416 90.6414 184.424 90.6947 184.434 90.7501C184.44 90.7758 184.442 90.8015 184.446 90.8272C184.45 90.8509 184.454 90.8766 184.456 90.9023C184.458 90.9122 184.456 90.922 184.46 90.9339C184.46 90.9517 184.46 90.9675 184.462 90.9833C184.468 91.0209 184.468 91.0604 184.472 91.0999C184.474 91.1355 184.474 91.175 184.474 91.2126C184.474 91.2185 184.474 91.2264 184.474 91.2304C184.474 91.2403 184.474 91.2541 184.472 91.2679C184.474 91.2798 184.476 91.2956 184.472 91.3094C184.472 91.3272 184.472 91.347 184.472 91.3648C184.472 91.3984 184.472 91.432 184.468 91.4656C184.468 91.4715 184.468 91.4794 184.468 91.4834C184.464 91.5427 184.458 91.602 184.45 91.6593C184.45 91.6613 184.45 91.6652 184.45 91.6672C184.446 91.6969 184.444 91.7245 184.436 91.7542C184.434 91.7779 184.428 91.8036 184.424 91.8313C184.424 91.8372 184.422 91.8451 184.42 91.853C184.404 91.9281 184.388 92.0052 184.366 92.0783C184.36 92.1001 184.353 92.1278 184.345 92.1534C184.337 92.1791 184.329 92.2009 184.321 92.2266C184.313 92.2503 184.307 92.274 184.297 92.2977C184.281 92.3452 184.261 92.3946 184.243 92.442C184.231 92.4736 184.219 92.4993 184.209 92.529C184.178 92.5962 184.146 92.6575 184.114 92.7207C184.09 92.7682 184.064 92.8136 184.039 92.8551C184.013 92.9006 183.985 92.9421 183.957 92.9856C183.945 93.0073 183.931 93.0251 183.917 93.0469C183.905 93.0646 183.893 93.0844 183.878 93.1002C183.864 93.122 183.848 93.1437 183.83 93.1654C183.826 93.1714 183.82 93.1773 183.816 93.1852C183.776 93.2386 183.734 93.29 183.693 93.3374C183.689 93.3414 183.685 93.3473 183.681 93.3532C183.645 93.3888 183.611 93.4283 183.575 93.4659C183.562 93.4797 183.552 93.4916 183.54 93.5015C183.52 93.5212 183.5 93.541 183.48 93.5588C183.464 93.5746 183.45 93.5884 183.43 93.6042C183.413 93.622 183.395 93.6378 183.377 93.6517C183.252 93.7624 183.116 93.8632 182.973 93.9501C182.963 93.9541 182.955 93.962 182.947 93.966C182.938 93.9699 182.926 93.9778 182.916 93.9837C182.882 94.0035 182.85 94.0233 182.814 94.043C182.755 94.0766 182.695 94.1043 182.633 94.134C182.602 94.1478 182.57 94.1636 182.54 94.1774C182.52 94.1873 182.498 94.1933 182.478 94.2012C182.455 94.211 182.427 94.2229 182.403 94.2328H182.395C182.373 94.2427 182.351 94.2526 182.331 94.2585C182.321 94.2605 182.312 94.2644 182.302 94.2684C182.284 94.2743 182.268 94.2802 182.248 94.2881C182.238 94.2901 182.228 94.2941 182.216 94.298C182.178 94.3079 182.139 94.3198 182.101 94.3296C182.045 94.3435 181.99 94.3573 181.934 94.3692L181.761 94.4048L138.622 79.0231C138.435 78.9559 138.264 78.865 138.117 78.7602C137.267 78.1515 137.016 76.9813 137.549 76.082C137.64 75.9239 137.76 75.7717 137.903 75.6353L139.826 73.8089L140.836 72.8523L167.689 47.3961L170.602 44.6348L171.32 44.4846C171.395 44.4688 171.471 44.455 171.546 44.4471C171.558 44.4411 171.574 44.4411 171.588 44.4411C171.659 44.4312 171.735 44.4233 171.806 44.4194C171.822 44.4194 171.84 44.4194 171.856 44.4174C171.92 44.4154 171.983 44.4154 172.045 44.4174C172.061 44.4174 172.077 44.4174 172.093 44.4174C172.17 44.4194 172.246 44.4253 172.321 44.4332C172.391 44.4391 172.466 44.451 172.534 44.4629C172.633 44.4787 172.731 44.5024 172.828 44.5301C172.882 44.5419 172.935 44.5577 172.987 44.5755C173.078 44.6032 173.168 44.6388 173.253 44.6783C173.255 44.6744 173.255 44.6783 173.255 44.6783L173.444 44.7673C173.444 44.7673 173.462 44.7732 173.468 44.7791C173.518 44.8028 173.563 44.8305 173.609 44.8582C173.645 44.8779 173.679 44.8997 173.712 44.9214C173.816 44.9867 173.917 45.0578 174.012 45.1389C174.058 45.1744 174.1 45.21 174.14 45.2476C174.311 45.3998 174.464 45.5697 174.597 45.7595C174.634 45.8089 174.668 45.8623 174.704 45.9156C174.704 45.9176 174.708 45.9196 174.708 45.9235C174.764 46.0105 174.811 46.0995 174.857 46.1904C174.881 46.2358 174.901 46.2793 174.921 46.3248C174.937 46.3604 174.952 46.394 174.964 46.4315C174.98 46.4671 174.994 46.5047 175.006 46.5422C175.024 46.5857 175.038 46.6312 175.05 46.6746C175.064 46.7122 175.074 46.7517 175.082 46.7893C175.096 46.8427 175.109 46.896 175.121 46.9494L175.115 46.9474Z" fill="#546EDB"/>
<path opacity="0.29" d="M184.279 89.997L184.376 90.4516C184.76 92.2523 183.665 94.0075 181.93 94.3712L104.41 110.692C102.677 111.057 100.96 109.893 100.577 108.094L100.479 107.64L134.798 73.1547C135.864 72.0834 137.44 71.7513 138.851 72.3008L184.279 89.997Z" fill="#474747"/>
<path d="M184.311 90.1532L184.404 90.588C184.772 92.3116 183.663 94.0055 181.93 94.3711L104.41 110.692C102.677 111.057 100.974 109.954 100.606 108.231L100.513 107.796L135.065 74.4059C136.138 73.3701 137.714 73.0381 139.117 73.552L184.311 90.1532Z" fill="#6D86EC"/>
<path d="M190.567 14.8539C197.395 16.3264 202.491 20.8093 203.405 26.2172C203.538 27.0098 204.156 31.2198 201.392 34.578C198.317 38.3118 191.894 39.982 188.184 36.9756C185.382 34.7045 184.198 29.8204 186.089 27.4505C189.42 23.278 204.377 24.2801 209.234 33.6174C212.706 40.2903 210.279 49.7936 202.69 55.415" stroke="#52D1BD" stroke-width="2.13" stroke-linecap="round" stroke-linejoin="round"/>
<g style="mix-blend-mode:multiply" opacity="0.2">
<path d="M191.566 12.7283C191.925 7.19218 187.703 2.41481 182.137 2.05778C176.571 1.70074 171.767 5.89924 171.408 11.4354C171.049 16.9715 175.271 21.7489 180.837 22.1059C186.403 22.463 191.207 18.2645 191.566 12.7283Z" fill="#3A7EC1"/>
</g>
<path d="M185.549 19.7367C190.931 18.2775 194.104 12.7557 192.637 7.40335C191.17 2.05105 185.618 -1.10493 180.236 0.354275C174.855 1.81348 171.682 7.3353 173.149 12.6876C174.616 18.0399 180.168 21.1959 185.549 19.7367Z" fill="#52D1BD"/>
<path d="M181.686 4.27137C182.119 3.82862 182.699 3.51632 183.43 3.33646C184.162 3.15659 184.947 3.18426 185.787 3.41354C186.628 3.6448 187.415 4.11325 188.148 4.81888C188.83 5.4751 189.309 6.18073 189.587 6.93381C189.865 7.68688 189.937 8.41425 189.802 9.11791C189.667 9.82157 189.353 10.4264 188.862 10.9304C188.474 11.3277 188.055 11.5985 187.602 11.7408C187.149 11.8831 186.704 11.9563 186.268 11.9582C185.833 11.9582 185.076 11.9404 183.999 11.897C183.699 11.8871 183.446 11.891 183.242 11.9088C183.039 11.9266 182.868 11.9563 182.733 12.0037C182.598 12.0492 182.473 12.1045 182.357 12.1717C182.242 12.2389 182.047 12.3595 181.773 12.5393C181.211 12.9386 180.694 12.9129 180.225 12.4603C179.98 12.2251 179.851 11.9464 179.841 11.6281C179.829 11.3079 179.976 10.9917 180.28 10.6794C180.664 10.2861 181.056 10.0054 181.457 9.83738C181.858 9.6674 182.268 9.57252 182.681 9.5488C183.095 9.52706 183.619 9.53101 184.253 9.56264C184.808 9.59031 185.219 9.60217 185.481 9.59822C185.746 9.59426 186.002 9.55473 186.252 9.47962C186.503 9.40451 186.721 9.27208 186.908 9.08036C187.272 8.70678 187.441 8.25613 187.411 7.73036C187.381 7.2046 187.147 6.72824 186.706 6.3013C186.189 5.80321 185.682 5.56602 185.185 5.58974C184.688 5.61346 184.11 5.7953 183.448 6.13725C182.775 6.51082 182.214 6.48315 181.767 6.05226C181.505 5.79926 181.372 5.49289 181.372 5.13315C181.372 4.77342 181.475 4.48682 181.684 4.27335L181.686 4.27137ZM177.637 15.265C177.351 14.9883 177.19 14.6562 177.156 14.2649C177.123 13.8735 177.268 13.5138 177.592 13.1817C177.878 12.8872 178.224 12.739 178.625 12.739C179.026 12.739 179.378 12.8813 179.68 13.1718C179.976 13.4565 180.127 13.7984 180.133 14.1937C180.139 14.589 179.998 14.9349 179.712 15.2275C179.394 15.5536 179.036 15.7098 178.643 15.692C178.249 15.6742 177.914 15.5319 177.637 15.265Z" fill="#E4ECF9"/>
</g>
<circle cx="268.799" cy="43.9458" r="21.7493" transform="rotate(18.778 268.799 43.9458)" fill="#6FE1B8"/>
<path d="M271.963 56.3692L270.42 55.5582L271.016 54.4246C272.596 51.417 272.362 48.1594 270.403 45.9222C270.236 45.7354 270.127 45.5091 270.092 45.2721C270.056 45.0351 270.095 44.7983 270.203 44.5921C270.311 44.3858 270.484 44.2195 270.7 44.1145C270.915 44.0094 271.163 43.9704 271.412 44.0025C274.365 44.3463 277.181 42.6918 278.762 39.6842L279.358 38.5507L280.901 39.3617C281.105 39.4692 281.341 39.4977 281.555 39.4409C281.77 39.384 281.946 39.2465 282.045 39.0585C282.144 38.8706 282.157 38.6476 282.082 38.4387C282.007 38.2297 281.85 38.0519 281.646 37.9444L264.67 29.0233C264.465 28.9157 264.229 28.8872 264.015 28.9441C263.8 29.0009 263.624 29.1385 263.526 29.3264C263.427 29.5144 263.413 29.7373 263.488 29.9463C263.563 30.1552 263.72 30.333 263.925 30.4406L265.468 31.2516L264.872 32.3851C263.292 35.3927 263.526 38.6503 265.485 40.8875C265.652 41.0743 265.761 41.3007 265.796 41.5377C265.832 41.7746 265.793 42.0114 265.685 42.2177C265.576 42.4239 265.403 42.5902 265.188 42.6953C264.973 42.8003 264.725 42.8393 264.476 42.8073C261.522 42.4634 258.707 44.1179 257.126 47.1255L256.53 48.2591L254.987 47.4481C254.782 47.3405 254.547 47.312 254.332 47.3689C254.118 47.4257 253.942 47.5633 253.843 47.7512C253.744 47.9392 253.731 48.1621 253.806 48.3711C253.881 48.58 254.038 48.7578 254.242 48.8654L271.218 57.7865C271.423 57.894 271.658 57.9225 271.873 57.8656C272.088 57.8088 272.264 57.6713 272.362 57.4833C272.461 57.2954 272.475 57.0724 272.4 56.8635C272.325 56.6545 272.168 56.4767 271.963 56.3692ZM267.038 33.8854C267.137 33.6974 267.313 33.5599 267.527 33.5031C267.742 33.4462 267.978 33.4747 268.182 33.5822L275.899 37.6373C276.103 37.7448 276.26 37.9226 276.335 38.1316C276.41 38.3405 276.397 38.5635 276.298 38.7514C275.705 39.8791 274.649 40.7043 273.362 41.0454C272.074 41.3865 270.661 41.2156 269.434 40.5703C268.206 39.925 267.263 38.8582 266.814 37.6045C266.365 36.3509 266.446 35.013 267.038 33.8854Z" fill="url(#paint0_linear_15_1879)"/>
<circle cx="26.125" cy="107.89" r="21.7493" transform="rotate(-13.1431 26.125 107.89)" fill="#546EDB"/>
<path d="M35.5925 113.214L34.2224 113.629L33.9178 112.622C33.1095 109.952 31.0954 108.182 28.6608 108.002C28.4552 107.989 28.2613 107.919 28.1039 107.801C27.9465 107.683 27.8328 107.522 27.7774 107.339C27.7219 107.156 27.7273 106.959 27.7928 106.773C27.8583 106.588 27.9809 106.422 28.1449 106.297C30.0707 104.797 30.7646 102.207 29.9563 99.5366L29.6517 98.5303L31.0217 98.1155C31.2034 98.0605 31.3576 97.9415 31.4503 97.7846C31.5431 97.6277 31.5668 97.4459 31.5163 97.279C31.4658 97.1122 31.3452 96.974 31.181 96.8949C31.0168 96.8158 30.8225 96.8023 30.6408 96.8573L15.5703 101.42C15.3886 101.475 15.2344 101.594 15.1417 101.75C15.0489 101.907 15.0252 102.089 15.0757 102.256C15.1262 102.423 15.2468 102.561 15.411 102.64C15.5752 102.719 15.7695 102.733 15.9512 102.678L17.3212 102.263L17.6259 103.269C18.4342 105.939 20.4482 107.71 22.8828 107.89C23.0884 107.903 23.2823 107.973 23.4397 108.091C23.5971 108.209 23.7108 108.37 23.7663 108.553C23.8217 108.736 23.8163 108.933 23.7508 109.119C23.6854 109.304 23.5628 109.47 23.3987 109.595C21.473 111.095 20.779 113.685 21.5873 116.355L21.892 117.362L20.5219 117.776C20.3402 117.831 20.1861 117.95 20.0933 118.107C20.0006 118.264 19.9768 118.446 20.0273 118.613C20.0779 118.78 20.1985 118.918 20.3627 118.997C20.5268 119.076 20.7211 119.09 20.9028 119.035L35.9734 114.472C36.1551 114.417 36.3092 114.298 36.402 114.141C36.4947 113.984 36.5185 113.803 36.4679 113.636C36.4174 113.469 36.2968 113.331 36.1326 113.252C35.9685 113.173 35.7742 113.159 35.5925 113.214ZM19.7572 102.899C19.7067 102.732 19.7304 102.55 19.8232 102.394C19.9159 102.237 20.0701 102.118 20.2518 102.063L27.102 99.9889C27.2837 99.9339 27.478 99.9474 27.6422 100.026C27.8064 100.106 27.927 100.244 27.9775 100.411C28.2806 101.412 28.1382 102.503 27.5817 103.444C27.0252 104.385 26.1001 105.099 25.01 105.429C23.92 105.759 22.7541 105.678 21.769 105.204C20.7839 104.729 20.0603 103.9 19.7572 102.899Z" fill="url(#paint1_linear_15_1879)"/>
<defs>
<linearGradient id="paint0_linear_15_1879" x1="269.585" y1="30.6383" x2="262.358" y2="61.1384" gradientUnits="userSpaceOnUse">
<stop offset="0.244792" stop-color="white"/>
<stop offset="0.9999" stop-color="white" stop-opacity="0.26"/>
<stop offset="1" stop-color="white" stop-opacity="0"/>
</linearGradient>
<linearGradient id="paint1_linear_15_1879" x1="19.376" y1="99.5324" x2="32.7214" y2="121.538" gradientUnits="userSpaceOnUse">
<stop offset="0.244792" stop-color="white"/>
<stop offset="0.9999" stop-color="white" stop-opacity="0.26"/>
<stop offset="1" stop-color="white" stop-opacity="0"/>
</linearGradient>
<clipPath id="clip0_15_1879">
<rect width="163.529" height="139" fill="white" transform="translate(58.5981)"/>
</clipPath>
</defs>
</svg>
